<mxfile host="app.diagrams.net" modified="2021-09-15T03:19:18.929Z" agent="5.0 (Windows)" etag="NVoRtD69YICK50JK5fLP" version="15.0.6" type="github" pages="4">
  <diagram name="Page-1" id="13e1069c-82ec-6db2-03f1-153e76fe0fe0">
    <mxGraphModel dx="1038" dy="536" grid="1" gridSize="10" guides="1" tooltips="1" connect="1" arrows="1" fold="1" page="1" pageScale="1" pageWidth="1100" pageHeight="850" background="none" math="0" shadow="0">
      <root>
        <mxCell id="0" />
        <mxCell id="1" parent="0" />
        <mxCell id="7baba1c4bc27f4b0-2" value=":Object" style="shape=umlLifeline;perimeter=lifelinePerimeter;whiteSpace=wrap;html=1;container=1;collapsible=0;recursiveResize=0;outlineConnect=0;rounded=1;shadow=0;comic=0;labelBackgroundColor=none;strokeWidth=1;fontFamily=Verdana;fontSize=12;align=center;" parent="1" vertex="1">
          <mxGeometry x="240" y="80" width="100" height="810" as="geometry" />
        </mxCell>
        <mxCell id="7baba1c4bc27f4b0-10" value="" style="html=1;points=[];perimeter=orthogonalPerimeter;rounded=0;shadow=0;comic=0;labelBackgroundColor=none;strokeWidth=1;fontFamily=Verdana;fontSize=12;align=center;" parent="7baba1c4bc27f4b0-2" vertex="1">
          <mxGeometry x="45" y="100" width="10" height="230" as="geometry" />
        </mxCell>
        <mxCell id="7baba1c4bc27f4b0-3" value=":Object" style="shape=umlLifeline;perimeter=lifelinePerimeter;whiteSpace=wrap;html=1;container=1;collapsible=0;recursiveResize=0;outlineConnect=0;rounded=1;shadow=0;comic=0;labelBackgroundColor=none;strokeWidth=1;fontFamily=Verdana;fontSize=12;align=center;" parent="1" vertex="1">
          <mxGeometry x="400" y="80" width="100" height="810" as="geometry" />
        </mxCell>
        <mxCell id="7baba1c4bc27f4b0-13" value="" style="html=1;points=[];perimeter=orthogonalPerimeter;rounded=0;shadow=0;comic=0;labelBackgroundColor=none;strokeWidth=1;fontFamily=Verdana;fontSize=12;align=center;" parent="7baba1c4bc27f4b0-3" vertex="1">
          <mxGeometry x="45" y="120" width="10" height="200" as="geometry" />
        </mxCell>
        <mxCell id="7baba1c4bc27f4b0-4" value=":Object" style="shape=umlLifeline;perimeter=lifelinePerimeter;whiteSpace=wrap;html=1;container=1;collapsible=0;recursiveResize=0;outlineConnect=0;rounded=1;shadow=0;comic=0;labelBackgroundColor=none;strokeWidth=1;fontFamily=Verdana;fontSize=12;align=center;" parent="1" vertex="1">
          <mxGeometry x="540" y="80" width="100" height="580" as="geometry" />
        </mxCell>
        <mxCell id="7baba1c4bc27f4b0-5" value=":Object" style="shape=umlLifeline;perimeter=lifelinePerimeter;whiteSpace=wrap;html=1;container=1;collapsible=0;recursiveResize=0;outlineConnect=0;rounded=1;shadow=0;comic=0;labelBackgroundColor=none;strokeWidth=1;fontFamily=Verdana;fontSize=12;align=center;" parent="1" vertex="1">
          <mxGeometry x="680" y="80" width="100" height="580" as="geometry" />
        </mxCell>
        <mxCell id="7baba1c4bc27f4b0-6" value=":Object" style="shape=umlLifeline;perimeter=lifelinePerimeter;whiteSpace=wrap;html=1;container=1;collapsible=0;recursiveResize=0;outlineConnect=0;rounded=1;shadow=0;comic=0;labelBackgroundColor=none;strokeWidth=1;fontFamily=Verdana;fontSize=12;align=center;" parent="1" vertex="1">
          <mxGeometry x="820" y="80" width="100" height="580" as="geometry" />
        </mxCell>
        <mxCell id="7baba1c4bc27f4b0-7" value=":Object" style="shape=umlLifeline;perimeter=lifelinePerimeter;whiteSpace=wrap;html=1;container=1;collapsible=0;recursiveResize=0;outlineConnect=0;rounded=1;shadow=0;comic=0;labelBackgroundColor=none;strokeWidth=1;fontFamily=Verdana;fontSize=12;align=center;" parent="1" vertex="1">
          <mxGeometry x="960" y="80" width="100" height="580" as="geometry" />
        </mxCell>
        <mxCell id="7baba1c4bc27f4b0-8" value=":Object" style="shape=umlLifeline;perimeter=lifelinePerimeter;whiteSpace=wrap;html=1;container=1;collapsible=0;recursiveResize=0;outlineConnect=0;rounded=1;shadow=0;comic=0;labelBackgroundColor=none;strokeWidth=1;fontFamily=Verdana;fontSize=12;align=center;" parent="1" vertex="1">
          <mxGeometry x="100" y="80" width="100" height="790" as="geometry" />
        </mxCell>
        <mxCell id="7baba1c4bc27f4b0-9" value="" style="html=1;points=[];perimeter=orthogonalPerimeter;rounded=0;shadow=0;comic=0;labelBackgroundColor=none;strokeWidth=1;fontFamily=Verdana;fontSize=12;align=center;" parent="7baba1c4bc27f4b0-8" vertex="1">
          <mxGeometry x="45" y="100" width="10" height="440" as="geometry" />
        </mxCell>
        <mxCell id="7baba1c4bc27f4b0-16" value="" style="html=1;points=[];perimeter=orthogonalPerimeter;rounded=0;shadow=0;comic=0;labelBackgroundColor=none;strokeWidth=1;fontFamily=Verdana;fontSize=12;align=center;" parent="1" vertex="1">
          <mxGeometry x="585" y="220" width="10" height="180" as="geometry" />
        </mxCell>
        <mxCell id="7baba1c4bc27f4b0-17" value="dispatch" style="html=1;verticalAlign=bottom;endArrow=block;labelBackgroundColor=none;fontFamily=Verdana;fontSize=12;edgeStyle=elbowEdgeStyle;elbow=vertical;" parent="1" source="7baba1c4bc27f4b0-13" target="7baba1c4bc27f4b0-16" edge="1">
          <mxGeometry relative="1" as="geometry">
            <mxPoint x="510" y="220" as="sourcePoint" />
            <Array as="points">
              <mxPoint x="460" y="220" />
            </Array>
          </mxGeometry>
        </mxCell>
        <mxCell id="7baba1c4bc27f4b0-19" value="" style="html=1;points=[];perimeter=orthogonalPerimeter;rounded=0;shadow=0;comic=0;labelBackgroundColor=none;strokeWidth=1;fontFamily=Verdana;fontSize=12;align=center;" parent="1" vertex="1">
          <mxGeometry x="725" y="230" width="10" height="40" as="geometry" />
        </mxCell>
        <mxCell id="7baba1c4bc27f4b0-20" value="dispatch" style="html=1;verticalAlign=bottom;endArrow=block;entryX=0;entryY=0;labelBackgroundColor=none;fontFamily=Verdana;fontSize=12;edgeStyle=elbowEdgeStyle;elbow=vertical;" parent="1" source="7baba1c4bc27f4b0-16" target="7baba1c4bc27f4b0-19" edge="1">
          <mxGeometry relative="1" as="geometry">
            <mxPoint x="650" y="230" as="sourcePoint" />
          </mxGeometry>
        </mxCell>
        <mxCell id="7baba1c4bc27f4b0-21" value="return" style="html=1;verticalAlign=bottom;endArrow=open;dashed=1;endSize=8;labelBackgroundColor=none;fontFamily=Verdana;fontSize=12;edgeStyle=elbowEdgeStyle;elbow=vertical;" parent="1" source="7baba1c4bc27f4b0-19" target="7baba1c4bc27f4b0-16" edge="1">
          <mxGeometry relative="1" as="geometry">
            <mxPoint x="650" y="306" as="targetPoint" />
            <Array as="points">
              <mxPoint x="670" y="260" />
              <mxPoint x="700" y="260" />
            </Array>
          </mxGeometry>
        </mxCell>
        <mxCell id="7baba1c4bc27f4b0-22" value="" style="html=1;points=[];perimeter=orthogonalPerimeter;rounded=0;shadow=0;comic=0;labelBackgroundColor=none;strokeWidth=1;fontFamily=Verdana;fontSize=12;align=center;" parent="1" vertex="1">
          <mxGeometry x="585" y="440" width="10" height="140" as="geometry" />
        </mxCell>
        <mxCell id="7baba1c4bc27f4b0-23" value="dispatch" style="html=1;verticalAlign=bottom;endArrow=block;entryX=0;entryY=0;labelBackgroundColor=none;fontFamily=Verdana;fontSize=12;" parent="1" source="7baba1c4bc27f4b0-9" target="7baba1c4bc27f4b0-22" edge="1">
          <mxGeometry relative="1" as="geometry">
            <mxPoint x="510" y="420" as="sourcePoint" />
          </mxGeometry>
        </mxCell>
        <mxCell id="7baba1c4bc27f4b0-25" value="" style="html=1;points=[];perimeter=orthogonalPerimeter;rounded=0;shadow=0;comic=0;labelBackgroundColor=none;strokeColor=#000000;strokeWidth=1;fillColor=#FFFFFF;fontFamily=Verdana;fontSize=12;fontColor=#000000;align=center;" parent="1" vertex="1">
          <mxGeometry x="1005" y="460" width="10" height="30" as="geometry" />
        </mxCell>
        <mxCell id="7baba1c4bc27f4b0-26" value="dispatch" style="html=1;verticalAlign=bottom;endArrow=block;entryX=0;entryY=0;labelBackgroundColor=none;fontFamily=Verdana;fontSize=12;" parent="1" source="7baba1c4bc27f4b0-22" target="7baba1c4bc27f4b0-25" edge="1">
          <mxGeometry relative="1" as="geometry">
            <mxPoint x="930" y="340" as="sourcePoint" />
          </mxGeometry>
        </mxCell>
        <mxCell id="7baba1c4bc27f4b0-27" value="return" style="html=1;verticalAlign=bottom;endArrow=open;dashed=1;endSize=8;exitX=0;exitY=0.95;labelBackgroundColor=none;fontFamily=Verdana;fontSize=12;" parent="1" source="7baba1c4bc27f4b0-25" target="7baba1c4bc27f4b0-22" edge="1">
          <mxGeometry relative="1" as="geometry">
            <mxPoint x="930" y="416" as="targetPoint" />
          </mxGeometry>
        </mxCell>
        <mxCell id="7baba1c4bc27f4b0-28" value="" style="html=1;points=[];perimeter=orthogonalPerimeter;rounded=0;shadow=0;comic=0;labelBackgroundColor=none;strokeWidth=1;fontFamily=Verdana;fontSize=12;align=center;" parent="1" vertex="1">
          <mxGeometry x="870" y="550" width="10" height="60" as="geometry" />
        </mxCell>
        <mxCell id="7baba1c4bc27f4b0-29" value="dispatch" style="html=1;verticalAlign=bottom;endArrow=block;entryX=0;entryY=0;labelBackgroundColor=none;fontFamily=Verdana;fontSize=12;edgeStyle=elbowEdgeStyle;elbow=vertical;" parent="1" source="7baba1c4bc27f4b0-37" target="7baba1c4bc27f4b0-28" edge="1">
          <mxGeometry relative="1" as="geometry">
            <mxPoint x="800" y="550" as="sourcePoint" />
          </mxGeometry>
        </mxCell>
        <mxCell id="7baba1c4bc27f4b0-30" value="return" style="html=1;verticalAlign=bottom;endArrow=open;dashed=1;endSize=8;labelBackgroundColor=none;fontFamily=Verdana;fontSize=12;edgeStyle=elbowEdgeStyle;elbow=vertical;" parent="1" source="7baba1c4bc27f4b0-28" target="7baba1c4bc27f4b0-9" edge="1">
          <mxGeometry relative="1" as="geometry">
            <mxPoint x="800" y="626" as="targetPoint" />
            <Array as="points">
              <mxPoint x="570" y="600" />
            </Array>
          </mxGeometry>
        </mxCell>
        <mxCell id="7baba1c4bc27f4b0-11" value="dispatch" style="html=1;verticalAlign=bottom;endArrow=block;labelBackgroundColor=none;fontFamily=Verdana;fontSize=12;edgeStyle=elbowEdgeStyle;elbow=vertical;exitX=0.9;exitY=0.005;exitDx=0;exitDy=0;exitPerimeter=0;entryX=-0.2;entryY=0.009;entryDx=0;entryDy=0;entryPerimeter=0;" parent="1" source="7baba1c4bc27f4b0-9" target="7baba1c4bc27f4b0-10" edge="1">
          <mxGeometry relative="1" as="geometry">
            <mxPoint x="220" y="190" as="sourcePoint" />
            <mxPoint x="250" y="190" as="targetPoint" />
          </mxGeometry>
        </mxCell>
        <mxCell id="7baba1c4bc27f4b0-14" value="dispatch" style="html=1;verticalAlign=bottom;endArrow=block;entryX=0;entryY=0;labelBackgroundColor=none;fontFamily=Verdana;fontSize=12;edgeStyle=elbowEdgeStyle;elbow=vertical;" parent="1" source="7baba1c4bc27f4b0-10" target="7baba1c4bc27f4b0-13" edge="1">
          <mxGeometry relative="1" as="geometry">
            <mxPoint x="370" y="200" as="sourcePoint" />
          </mxGeometry>
        </mxCell>
        <mxCell id="7baba1c4bc27f4b0-34" value="" style="html=1;points=[];perimeter=orthogonalPerimeter;rounded=0;shadow=0;comic=0;labelBackgroundColor=none;strokeWidth=1;fontFamily=Verdana;fontSize=12;align=center;" parent="1" vertex="1">
          <mxGeometry x="590" y="300" width="10" height="70" as="geometry" />
        </mxCell>
        <mxCell id="7baba1c4bc27f4b0-35" value="dispatch" style="html=1;verticalAlign=bottom;endArrow=block;labelBackgroundColor=none;fontFamily=Verdana;fontSize=12;elbow=vertical;edgeStyle=orthogonalEdgeStyle;curved=1;entryX=1;entryY=0.286;entryPerimeter=0;exitX=1.038;exitY=0.345;exitPerimeter=0;" parent="1" source="7baba1c4bc27f4b0-16" target="7baba1c4bc27f4b0-34" edge="1">
          <mxGeometry relative="1" as="geometry">
            <mxPoint x="465" y="230" as="sourcePoint" />
            <mxPoint x="595" y="230" as="targetPoint" />
            <Array as="points">
              <mxPoint x="650" y="282" />
              <mxPoint x="650" y="320" />
            </Array>
          </mxGeometry>
        </mxCell>
        <mxCell id="7baba1c4bc27f4b0-36" value="dispatch" style="html=1;verticalAlign=bottom;endArrow=block;labelBackgroundColor=none;fontFamily=Verdana;fontSize=12;elbow=vertical;edgeStyle=orthogonalEdgeStyle;curved=1;exitX=1.066;exitY=0.713;exitPerimeter=0;" parent="1" source="7baba1c4bc27f4b0-34" edge="1">
          <mxGeometry relative="1" as="geometry">
            <mxPoint x="610.3333333333333" y="350" as="sourcePoint" />
            <mxPoint x="595" y="389" as="targetPoint" />
            <Array as="points">
              <mxPoint x="650" y="350" />
              <mxPoint x="650" y="389" />
            </Array>
          </mxGeometry>
        </mxCell>
        <mxCell id="7baba1c4bc27f4b0-37" value="" style="html=1;points=[];perimeter=orthogonalPerimeter;rounded=0;shadow=0;comic=0;labelBackgroundColor=none;strokeWidth=1;fontFamily=Verdana;fontSize=12;align=center;" parent="1" vertex="1">
          <mxGeometry x="590" y="520" width="10" height="40" as="geometry" />
        </mxCell>
        <mxCell id="7baba1c4bc27f4b0-39" value="dispatch" style="html=1;verticalAlign=bottom;endArrow=block;labelBackgroundColor=none;fontFamily=Verdana;fontSize=12;elbow=vertical;edgeStyle=orthogonalEdgeStyle;curved=1;entryX=1;entryY=0.286;entryPerimeter=0;exitX=1.038;exitY=0.345;exitPerimeter=0;" parent="1" edge="1">
          <mxGeometry relative="1" as="geometry">
            <mxPoint x="595.3333333333335" y="501" as="sourcePoint" />
            <mxPoint x="600.3333333333335" y="539.3333333333334" as="targetPoint" />
            <Array as="points">
              <mxPoint x="650" y="501" />
              <mxPoint x="650" y="539" />
            </Array>
          </mxGeometry>
        </mxCell>
        <mxCell id="7baba1c4bc27f4b0-40" value="Note" style="shape=note;whiteSpace=wrap;html=1;size=14;verticalAlign=top;align=left;spacingTop=-6;rounded=0;shadow=0;comic=0;labelBackgroundColor=none;strokeWidth=1;fontFamily=Verdana;fontSize=12" parent="1" vertex="1">
          <mxGeometry x="100" y="30" width="100" height="35" as="geometry" />
        </mxCell>
        <mxCell id="7baba1c4bc27f4b0-41" value="Note" style="shape=note;whiteSpace=wrap;html=1;size=14;verticalAlign=top;align=left;spacingTop=-6;rounded=0;shadow=0;comic=0;labelBackgroundColor=none;strokeWidth=1;fontFamily=Verdana;fontSize=12" parent="1" vertex="1">
          <mxGeometry x="240" y="30" width="100" height="35" as="geometry" />
        </mxCell>
        <mxCell id="7baba1c4bc27f4b0-42" value="Note" style="shape=note;whiteSpace=wrap;html=1;size=14;verticalAlign=top;align=left;spacingTop=-6;rounded=0;shadow=0;comic=0;labelBackgroundColor=none;strokeWidth=1;fontFamily=Verdana;fontSize=12" parent="1" vertex="1">
          <mxGeometry x="400" y="30" width="100" height="35" as="geometry" />
        </mxCell>
        <mxCell id="7baba1c4bc27f4b0-43" value="Note" style="shape=note;whiteSpace=wrap;html=1;size=14;verticalAlign=top;align=left;spacingTop=-6;rounded=0;shadow=0;comic=0;labelBackgroundColor=none;strokeWidth=1;fontFamily=Verdana;fontSize=12" parent="1" vertex="1">
          <mxGeometry x="540" y="30" width="100" height="35" as="geometry" />
        </mxCell>
        <mxCell id="7baba1c4bc27f4b0-44" value="Note" style="shape=note;whiteSpace=wrap;html=1;size=14;verticalAlign=top;align=left;spacingTop=-6;rounded=0;shadow=0;comic=0;labelBackgroundColor=none;strokeWidth=1;fontFamily=Verdana;fontSize=12" parent="1" vertex="1">
          <mxGeometry x="680" y="30" width="100" height="35" as="geometry" />
        </mxCell>
        <mxCell id="7baba1c4bc27f4b0-45" value="Note" style="shape=note;whiteSpace=wrap;html=1;size=14;verticalAlign=top;align=left;spacingTop=-6;rounded=0;shadow=0;comic=0;labelBackgroundColor=none;strokeWidth=1;fontFamily=Verdana;fontSize=12" parent="1" vertex="1">
          <mxGeometry x="820" y="30" width="100" height="35" as="geometry" />
        </mxCell>
        <mxCell id="7baba1c4bc27f4b0-46" value="Note" style="shape=note;whiteSpace=wrap;html=1;size=14;verticalAlign=top;align=left;spacingTop=-6;rounded=0;shadow=0;comic=0;labelBackgroundColor=none;strokeWidth=1;fontFamily=Verdana;fontSize=12" parent="1" vertex="1">
          <mxGeometry x="960" y="30" width="100" height="35" as="geometry" />
        </mxCell>
        <mxCell id="PMKs-sMpHSr4OGFTbyy1-16" value="" style="html=1;points=[];perimeter=orthogonalPerimeter;rounded=0;shadow=0;comic=0;labelBackgroundColor=none;strokeWidth=1;fontFamily=Verdana;fontSize=12;align=center;" parent="1" vertex="1">
          <mxGeometry x="445" y="440" width="10" height="60" as="geometry" />
        </mxCell>
        <mxCell id="PMKs-sMpHSr4OGFTbyy1-17" value="" style="edgeStyle=elbowEdgeStyle;rounded=0;orthogonalLoop=1;jettySize=auto;html=1;endArrow=block;endFill=1;elbow=vertical;" parent="1" source="7baba1c4bc27f4b0-9" target="PMKs-sMpHSr4OGFTbyy1-16" edge="1">
          <mxGeometry relative="1" as="geometry" />
        </mxCell>
      </root>
    </mxGraphModel>
  </diagram>
  <diagram id="JDzBacc4Tl45WlvO5CWw" name="第 2 页">
    <mxGraphModel dx="1038" dy="536" grid="1" gridSize="10" guides="1" tooltips="1" connect="1" arrows="1" fold="1" page="1" pageScale="1" pageWidth="827" pageHeight="1169" math="0" shadow="0">
      <root>
        <mxCell id="0s2U-yhYTDLP14BUSXmH-0" />
        <mxCell id="0s2U-yhYTDLP14BUSXmH-1" parent="0s2U-yhYTDLP14BUSXmH-0" />
        <mxCell id="0s2U-yhYTDLP14BUSXmH-2" value="" style="fillColor=#DEE8FF;strokeColor=none" vertex="1" parent="0s2U-yhYTDLP14BUSXmH-1">
          <mxGeometry x="20" y="60" width="1570" height="800" as="geometry" />
        </mxCell>
        <mxCell id="0s2U-yhYTDLP14BUSXmH-3" value="" style="fillColor=#CCD5EB" vertex="1" parent="0s2U-yhYTDLP14BUSXmH-1">
          <mxGeometry x="120" y="460" width="1460" height="390" as="geometry" />
        </mxCell>
        <mxCell id="0s2U-yhYTDLP14BUSXmH-4" value="" style="edgeStyle=elbowEdgeStyle;elbow=horizontal;endArrow=none;dashed=1;rounded=0;" edge="1" parent="0s2U-yhYTDLP14BUSXmH-1">
          <mxGeometry x="1440" y="487.8935185185186" width="100" height="100" as="geometry">
            <mxPoint x="1334.5" y="660" as="sourcePoint" />
            <mxPoint x="1334.5" y="820" as="targetPoint" />
          </mxGeometry>
        </mxCell>
        <mxCell id="0s2U-yhYTDLP14BUSXmH-5" value="" style="fillColor=#CC4125;strokeColor=#660000" vertex="1" parent="0s2U-yhYTDLP14BUSXmH-1">
          <mxGeometry x="180" y="200" width="10" height="130" as="geometry" />
        </mxCell>
        <mxCell id="0s2U-yhYTDLP14BUSXmH-6" value="validate()" style="edgeStyle=none;verticalLabelPosition=top;verticalAlign=bottom;labelPosition=left;align=right;rounded=0;" edge="1" parent="0s2U-yhYTDLP14BUSXmH-1">
          <mxGeometry x="90" y="99.5" width="100" height="100" as="geometry">
            <mxPoint x="90" y="199.5" as="sourcePoint" />
            <mxPoint x="180" y="199.5" as="targetPoint" />
          </mxGeometry>
        </mxCell>
        <mxCell id="0s2U-yhYTDLP14BUSXmH-7" value=":dialog" style="shadow=1;fillColor=#A2C4C9;strokeColor=none" vertex="1" parent="0s2U-yhYTDLP14BUSXmH-1">
          <mxGeometry x="132.5" y="110" width="105" height="50" as="geometry" />
        </mxCell>
        <mxCell id="0s2U-yhYTDLP14BUSXmH-8" value="" style="fillColor=#CC4125;strokeColor=#660000" vertex="1" parent="0s2U-yhYTDLP14BUSXmH-1">
          <mxGeometry x="322.5" y="230" width="10" height="80" as="geometry" />
        </mxCell>
        <mxCell id="0s2U-yhYTDLP14BUSXmH-9" value="&lt;&lt;javascript&gt;&gt;&#xa;:Comments" style="shadow=1;fillColor=#A2C4C9;strokeColor=none" vertex="1" parent="0s2U-yhYTDLP14BUSXmH-1">
          <mxGeometry x="275" y="110" width="105" height="50" as="geometry" />
        </mxCell>
        <mxCell id="0s2U-yhYTDLP14BUSXmH-10" value="" style="edgeStyle=none;endArrow=none;dashed=1;rounded=0;" edge="1" parent="0s2U-yhYTDLP14BUSXmH-1" source="0s2U-yhYTDLP14BUSXmH-9" target="0s2U-yhYTDLP14BUSXmH-8">
          <mxGeometry x="252.3350694444445" y="215" width="100" height="100" as="geometry">
            <mxPoint x="327.2588734567901" y="160" as="sourcePoint" />
            <mxPoint x="327.5761959876544" y="215" as="targetPoint" />
          </mxGeometry>
        </mxCell>
        <mxCell id="0s2U-yhYTDLP14BUSXmH-11" value="validate()" style="edgeStyle=none;verticalLabelPosition=top;verticalAlign=bottom;rounded=0;" edge="1" parent="0s2U-yhYTDLP14BUSXmH-1">
          <mxGeometry x="200" y="142" width="100" height="100" as="geometry">
            <mxPoint x="190" y="229.5" as="sourcePoint" />
            <mxPoint x="320" y="229.5" as="targetPoint" />
          </mxGeometry>
        </mxCell>
        <mxCell id="0s2U-yhYTDLP14BUSXmH-12" value="" style="edgeStyle=none;verticalLabelPosition=top;verticalAlign=bottom;endArrow=none;startArrow=classic;dashed=1;rounded=0;" edge="1" parent="0s2U-yhYTDLP14BUSXmH-1">
          <mxGeometry x="200" y="222.25887345679013" width="100" height="100" as="geometry">
            <mxPoint x="190" y="309.7588734567901" as="sourcePoint" />
            <mxPoint x="320" y="309.7588734567901" as="targetPoint" />
          </mxGeometry>
        </mxCell>
        <mxCell id="0s2U-yhYTDLP14BUSXmH-13" value="" style="edgeStyle=none;verticalLabelPosition=top;verticalAlign=bottom;labelPosition=left;align=right;endArrow=none;startArrow=classic;dashed=1;rounded=0;" edge="1" parent="0s2U-yhYTDLP14BUSXmH-1">
          <mxGeometry x="90" y="229.75887345679013" width="100" height="100" as="geometry">
            <mxPoint x="90" y="329.7588734567901" as="sourcePoint" />
            <mxPoint x="180" y="329.7588734567901" as="targetPoint" />
          </mxGeometry>
        </mxCell>
        <mxCell id="0s2U-yhYTDLP14BUSXmH-14" value="&lt;&lt;create&gt;&gt;" style="edgeStyle=none;verticalLabelPosition=top;verticalAlign=bottom;dashed=1;rounded=0;" edge="1" parent="0s2U-yhYTDLP14BUSXmH-1">
          <mxGeometry x="365.45524691358025" y="163.91550925925924" width="100" height="100" as="geometry">
            <mxPoint x="332.5" y="251.20563271604937" as="sourcePoint" />
            <mxPoint x="442.5" y="251.20563271604937" as="targetPoint" />
          </mxGeometry>
        </mxCell>
        <mxCell id="0s2U-yhYTDLP14BUSXmH-15" value="&lt;&lt;javascript&gt;&gt;&#xa;:Proxy" style="shadow=1;fillColor=#A2C4C9;strokeColor=none" vertex="1" parent="0s2U-yhYTDLP14BUSXmH-1">
          <mxGeometry x="442.2839506172839" y="219.99999999999997" width="105" height="50" as="geometry" />
        </mxCell>
        <mxCell id="0s2U-yhYTDLP14BUSXmH-16" value="" style="edgeStyle=none;endArrow=none;rounded=0;" edge="1" parent="0s2U-yhYTDLP14BUSXmH-1" source="0s2U-yhYTDLP14BUSXmH-15" target="0s2U-yhYTDLP14BUSXmH-17">
          <mxGeometry x="417.042824074074" y="320" width="100" height="100" as="geometry">
            <mxPoint x="494.542824074074" y="270" as="sourcePoint" />
            <mxPoint x="494.542824074074" y="290" as="targetPoint" />
          </mxGeometry>
        </mxCell>
        <mxCell id="0s2U-yhYTDLP14BUSXmH-17" value="" style="fillColor=#CC4125;strokeColor=#660000" vertex="1" parent="0s2U-yhYTDLP14BUSXmH-1">
          <mxGeometry x="489.78395061728384" y="294.3942901234568" width="10" height="130" as="geometry" />
        </mxCell>
        <mxCell id="0s2U-yhYTDLP14BUSXmH-18" value="&lt;&lt;ajax&gt;&gt;" style="edgeStyle=elbowEdgeStyle;elbow=vertical;verticalLabelPosition=top;verticalAlign=bottom;rounded=0;" edge="1" parent="0s2U-yhYTDLP14BUSXmH-1" source="0s2U-yhYTDLP14BUSXmH-8" target="0s2U-yhYTDLP14BUSXmH-17">
          <mxGeometry x="330" y="340" width="100" height="100" as="geometry">
            <mxPoint x="330" y="440" as="sourcePoint" />
            <mxPoint x="430" y="340" as="targetPoint" />
          </mxGeometry>
        </mxCell>
        <mxCell id="0s2U-yhYTDLP14BUSXmH-19" value="" style="fillColor=#CC4125;strokeColor=#660000" vertex="1" parent="0s2U-yhYTDLP14BUSXmH-1">
          <mxGeometry x="650" y="319.3942901234568" width="10" height="80" as="geometry" />
        </mxCell>
        <mxCell id="0s2U-yhYTDLP14BUSXmH-20" value="&lt;&lt;servlet&gt;&gt;&#xa;:CVSServlet" style="shadow=1;fillColor=#A2C4C9;strokeColor=none" vertex="1" parent="0s2U-yhYTDLP14BUSXmH-1">
          <mxGeometry x="602.5" y="110" width="105" height="50" as="geometry" />
        </mxCell>
        <mxCell id="0s2U-yhYTDLP14BUSXmH-21" value="" style="edgeStyle=none;endArrow=none;dashed=1;rounded=0;" edge="1" parent="0s2U-yhYTDLP14BUSXmH-1" source="0s2U-yhYTDLP14BUSXmH-20" target="0s2U-yhYTDLP14BUSXmH-19">
          <mxGeometry x="594.4878472222224" y="224.99999999999997" width="100" height="100" as="geometry">
            <mxPoint x="654.6527777777778" y="160" as="sourcePoint" />
            <mxPoint x="654.6527777777778" y="310" as="targetPoint" />
          </mxGeometry>
        </mxCell>
        <mxCell id="0s2U-yhYTDLP14BUSXmH-22" value="&lt;&lt;service&gt;&gt;&#xa;:CVSService" style="shadow=1;fillColor=#A2C4C9;strokeColor=none" vertex="1" parent="0s2U-yhYTDLP14BUSXmH-1">
          <mxGeometry x="730" y="110" width="105" height="50" as="geometry" />
        </mxCell>
        <mxCell id="0s2U-yhYTDLP14BUSXmH-23" value="" style="edgeStyle=none;endArrow=none;dashed=1;rounded=0;" edge="1" parent="0s2U-yhYTDLP14BUSXmH-1" source="0s2U-yhYTDLP14BUSXmH-22" target="0s2U-yhYTDLP14BUSXmH-24">
          <mxGeometry x="707.3350694444446" y="215" width="100" height="100" as="geometry">
            <mxPoint x="782.2588734567901" y="160" as="sourcePoint" />
            <mxPoint x="782.5761959876544" y="215" as="targetPoint" />
          </mxGeometry>
        </mxCell>
        <mxCell id="0s2U-yhYTDLP14BUSXmH-24" value="" style="fillColor=#CC4125;strokeColor=#660000" vertex="1" parent="0s2U-yhYTDLP14BUSXmH-1">
          <mxGeometry x="777.4999999999999" y="339.3942901234568" width="10" height="40" as="geometry" />
        </mxCell>
        <mxCell id="0s2U-yhYTDLP14BUSXmH-25" value="&lt;&lt;ajax&gt;&gt;" style="edgeStyle=elbowEdgeStyle;elbow=vertical;verticalLabelPosition=top;verticalAlign=bottom;rounded=0;" edge="1" parent="0s2U-yhYTDLP14BUSXmH-1" source="0s2U-yhYTDLP14BUSXmH-17" target="0s2U-yhYTDLP14BUSXmH-19">
          <mxGeometry x="520" y="320" width="100" height="100" as="geometry">
            <mxPoint x="520" y="420" as="sourcePoint" />
            <mxPoint x="620" y="320" as="targetPoint" />
            <Array as="points">
              <mxPoint x="570" y="320" />
            </Array>
          </mxGeometry>
        </mxCell>
        <mxCell id="0s2U-yhYTDLP14BUSXmH-26" value="errors" style="edgeStyle=elbowEdgeStyle;elbow=vertical;dashed=1;verticalLabelPosition=bottom;verticalAlign=top;rounded=0;" edge="1" parent="0s2U-yhYTDLP14BUSXmH-1" source="0s2U-yhYTDLP14BUSXmH-19" target="0s2U-yhYTDLP14BUSXmH-17">
          <mxGeometry x="530" y="330" width="100" height="100" as="geometry">
            <mxPoint x="509.78395061728384" y="330" as="sourcePoint" />
            <mxPoint x="660" y="330" as="targetPoint" />
            <Array as="points">
              <mxPoint x="573" y="398" />
            </Array>
          </mxGeometry>
        </mxCell>
        <mxCell id="0s2U-yhYTDLP14BUSXmH-27" value="&lt;&lt;javascript&gt;&gt;&#xa;:GimqRequest&#xa;Batch" style="shadow=1;fillColor=#A2C4C9;strokeColor=none" vertex="1" parent="0s2U-yhYTDLP14BUSXmH-1">
          <mxGeometry x="932.5" y="110" width="105" height="50" as="geometry" />
        </mxCell>
        <mxCell id="0s2U-yhYTDLP14BUSXmH-28" value="" style="edgeStyle=elbowEdgeStyle;elbow=horizontal;endArrow=none;dashed=1;rounded=0;" edge="1" parent="0s2U-yhYTDLP14BUSXmH-1" source="0s2U-yhYTDLP14BUSXmH-7" target="0s2U-yhYTDLP14BUSXmH-5">
          <mxGeometry x="210.00000000000003" y="360" width="100" height="100" as="geometry">
            <mxPoint x="210.00000000000003" y="460" as="sourcePoint" />
            <mxPoint x="310" y="360" as="targetPoint" />
          </mxGeometry>
        </mxCell>
        <mxCell id="0s2U-yhYTDLP14BUSXmH-29" value="validate()" style="edgeStyle=elbowEdgeStyle;elbow=vertical;verticalLabelPosition=top;verticalAlign=bottom;rounded=0;" edge="1" parent="0s2U-yhYTDLP14BUSXmH-1">
          <mxGeometry x="530" y="311.7361111111111" width="100" height="100" as="geometry">
            <mxPoint x="660" y="341.1304012345679" as="sourcePoint" />
            <mxPoint x="777.4999999999999" y="341.1304012345679" as="targetPoint" />
            <Array as="points" />
          </mxGeometry>
        </mxCell>
        <mxCell id="0s2U-yhYTDLP14BUSXmH-30" value="errors" style="edgeStyle=elbowEdgeStyle;elbow=vertical;dashed=1;verticalLabelPosition=bottom;verticalAlign=top;rounded=0;" edge="1" parent="0s2U-yhYTDLP14BUSXmH-1">
          <mxGeometry x="540" y="359.65277777777777" width="100" height="100" as="geometry">
            <mxPoint x="777.4999999999999" y="379.0470679012346" as="sourcePoint" />
            <mxPoint x="660" y="379.0470679012346" as="targetPoint" />
            <Array as="points" />
          </mxGeometry>
        </mxCell>
        <mxCell id="0s2U-yhYTDLP14BUSXmH-31" value="" style="edgeStyle=elbowEdgeStyle;elbow=horizontal;endArrow=none;dashed=1;rounded=0;" edge="1" parent="0s2U-yhYTDLP14BUSXmH-1">
          <mxGeometry x="912.2588734567901" y="290" width="100" height="100" as="geometry">
            <mxPoint x="782.2588734567901" y="379.3942901234568" as="sourcePoint" />
            <mxPoint x="782.2588734567901" y="420" as="targetPoint" />
            <Array as="points">
              <mxPoint x="782.2588734567901" y="400" />
            </Array>
          </mxGeometry>
        </mxCell>
        <mxCell id="0s2U-yhYTDLP14BUSXmH-32" value="" style="ellipse;fillColor=none" vertex="1" parent="0s2U-yhYTDLP14BUSXmH-1">
          <mxGeometry x="782.5000000000001" y="354.3942901234568" width="9.999999999999886" height="10" as="geometry" />
        </mxCell>
        <mxCell id="0s2U-yhYTDLP14BUSXmH-33" value=" - user&#xa; validation&#xa;&#xa; - password check" style="shape=note;align=left" vertex="1" parent="0s2U-yhYTDLP14BUSXmH-1">
          <mxGeometry x="809.9729938271605" y="230.17361111111111" width="120.02700617283949" height="109.82638888888889" as="geometry" />
        </mxCell>
        <mxCell id="0s2U-yhYTDLP14BUSXmH-34" value="" style="edgeStyle=none;endArrow=none;dashed=1;rounded=0;" edge="1" parent="0s2U-yhYTDLP14BUSXmH-1" source="0s2U-yhYTDLP14BUSXmH-33" target="0s2U-yhYTDLP14BUSXmH-32">
          <mxGeometry x="1010" y="230" width="100" height="100" as="geometry">
            <mxPoint x="1010" y="330" as="sourcePoint" />
            <mxPoint x="1110" y="230" as="targetPoint" />
          </mxGeometry>
        </mxCell>
        <mxCell id="0s2U-yhYTDLP14BUSXmH-35" value="" style="fillColor=#CC4125;strokeColor=#660000" vertex="1" parent="0s2U-yhYTDLP14BUSXmH-1">
          <mxGeometry x="180" y="410" width="10" height="220" as="geometry" />
        </mxCell>
        <mxCell id="0s2U-yhYTDLP14BUSXmH-36" value="             &lt;&lt;callback&gt;&gt;                                " style="edgeStyle=elbowEdgeStyle;elbow=vertical;dashed=0;verticalLabelPosition=top;verticalAlign=bottom;align=right;rounded=0;" edge="1" parent="0s2U-yhYTDLP14BUSXmH-1" source="0s2U-yhYTDLP14BUSXmH-17" target="0s2U-yhYTDLP14BUSXmH-35">
          <mxGeometry x="170" y="379.75887345679007" width="100" height="100" as="geometry">
            <mxPoint x="480" y="360" as="sourcePoint" />
            <mxPoint x="200" y="420" as="targetPoint" />
            <Array as="points" />
          </mxGeometry>
        </mxCell>
        <mxCell id="0s2U-yhYTDLP14BUSXmH-37" value="" style="edgeStyle=none;dashed=1;endArrow=none;rounded=0;" edge="1" parent="0s2U-yhYTDLP14BUSXmH-1" source="0s2U-yhYTDLP14BUSXmH-5" target="0s2U-yhYTDLP14BUSXmH-35">
          <mxGeometry x="30" y="350" width="100" height="100" as="geometry">
            <mxPoint x="30" y="450" as="sourcePoint" />
            <mxPoint x="130" y="350" as="targetPoint" />
          </mxGeometry>
        </mxCell>
        <mxCell id="0s2U-yhYTDLP14BUSXmH-38" value="" style="edgeStyle=elbowEdgeStyle;elbow=vertical;endArrow=none;rounded=0;" edge="1" parent="0s2U-yhYTDLP14BUSXmH-1" source="0s2U-yhYTDLP14BUSXmH-35">
          <mxGeometry x="40" y="360" width="100" height="100" as="geometry">
            <mxPoint x="40" y="460" as="sourcePoint" />
            <mxPoint x="130" y="410" as="targetPoint" />
          </mxGeometry>
        </mxCell>
        <mxCell id="0s2U-yhYTDLP14BUSXmH-39" value="{100..600ms}" style="edgeStyle=elbowEdgeStyle;elbow=horizontal;startArrow=open;endArrow=open;labelPosition=left;align=right;rounded=0;" edge="1" parent="0s2U-yhYTDLP14BUSXmH-1">
          <mxGeometry x="41.20563271604938" y="340" width="100" height="100" as="geometry">
            <mxPoint x="161.20563271604937" y="330" as="sourcePoint" />
            <mxPoint x="161.20563271604937" y="410" as="targetPoint" />
          </mxGeometry>
        </mxCell>
        <mxCell id="0s2U-yhYTDLP14BUSXmH-40" value="" style="fillColor=#CC4125;strokeColor=#660000" vertex="1" parent="0s2U-yhYTDLP14BUSXmH-1">
          <mxGeometry x="322.5" y="514.1666666666667" width="10" height="95.83333333333331" as="geometry" />
        </mxCell>
        <mxCell id="0s2U-yhYTDLP14BUSXmH-41" value="" style="fillColor=#CC4125;strokeColor=#660000" vertex="1" parent="0s2U-yhYTDLP14BUSXmH-1">
          <mxGeometry x="980" y="518.3333333333333" width="10" height="81.66666666666669" as="geometry" />
        </mxCell>
        <mxCell id="0s2U-yhYTDLP14BUSXmH-42" value="" style="edgeStyle=none;endArrow=none;dashed=1;rounded=0;" edge="1" parent="0s2U-yhYTDLP14BUSXmH-1" source="0s2U-yhYTDLP14BUSXmH-27" target="0s2U-yhYTDLP14BUSXmH-41">
          <mxGeometry x="936.5711805555559" y="255" width="100" height="100" as="geometry">
            <mxPoint x="1011.7361111111113" y="200" as="sourcePoint" />
            <mxPoint x="1011.7361111111113" y="379.3942901234568" as="targetPoint" />
          </mxGeometry>
        </mxCell>
        <mxCell id="0s2U-yhYTDLP14BUSXmH-43" value="post_comments()" style="edgeStyle=elbowEdgeStyle;elbow=vertical;verticalLabelPosition=top;verticalAlign=bottom;rounded=0;" edge="1" parent="0s2U-yhYTDLP14BUSXmH-1">
          <mxGeometry x="192.5" y="519.5833333333334" width="100" height="100" as="geometry">
            <mxPoint x="190" y="519.5833333333334" as="sourcePoint" />
            <mxPoint x="322.5" y="519.5833333333334" as="targetPoint" />
            <Array as="points" />
          </mxGeometry>
        </mxCell>
        <mxCell id="0s2U-yhYTDLP14BUSXmH-44" value="" style="edgeStyle=none;endArrow=none;dashed=1;rounded=0;" edge="1" parent="0s2U-yhYTDLP14BUSXmH-1" source="0s2U-yhYTDLP14BUSXmH-8" target="0s2U-yhYTDLP14BUSXmH-40">
          <mxGeometry x="356.5711805555559" y="389.6971450617284" width="100" height="100" as="geometry">
            <mxPoint x="431.7361111111112" y="334.6971450617284" as="sourcePoint" />
            <mxPoint x="431.7361111111112" y="514.0914351851852" as="targetPoint" />
          </mxGeometry>
        </mxCell>
        <mxCell id="0s2U-yhYTDLP14BUSXmH-45" value="BeginRequest()" style="edgeStyle=elbowEdgeStyle;elbow=vertical;verticalLabelPosition=top;verticalAlign=bottom;rounded=0;" edge="1" parent="0s2U-yhYTDLP14BUSXmH-1">
          <mxGeometry x="510" y="486.8055555555556" width="100" height="100" as="geometry">
            <mxPoint x="332.5" y="527.5694444444445" as="sourcePoint" />
            <mxPoint x="980" y="527.5694444444445" as="targetPoint" />
            <Array as="points" />
          </mxGeometry>
        </mxCell>
        <mxCell id="0s2U-yhYTDLP14BUSXmH-46" value="" style="edgeStyle=elbowEdgeStyle;elbow=vertical;dashed=1;verticalLabelPosition=bottom;verticalAlign=top;rounded=0;" edge="1" parent="0s2U-yhYTDLP14BUSXmH-1">
          <mxGeometry x="510" y="599.0779320987654" width="100" height="100" as="geometry">
            <mxPoint x="980" y="591.7361111111111" as="sourcePoint" />
            <mxPoint x="332.49999999999994" y="591.7361111111111" as="targetPoint" />
            <Array as="points" />
          </mxGeometry>
        </mxCell>
        <mxCell id="0s2U-yhYTDLP14BUSXmH-47" value="&lt;&lt;javascript&gt;&gt;&#xa;:Proxy" style="shadow=1;fillColor=#A2C4C9;strokeColor=none" vertex="1" parent="0s2U-yhYTDLP14BUSXmH-1">
          <mxGeometry x="1070" y="512.0833333333334" width="105" height="50" as="geometry" />
        </mxCell>
        <mxCell id="0s2U-yhYTDLP14BUSXmH-48" value="" style="edgeStyle=none;endArrow=none;dashed=1;rounded=0;" edge="1" parent="0s2U-yhYTDLP14BUSXmH-1" source="0s2U-yhYTDLP14BUSXmH-47" target="0s2U-yhYTDLP14BUSXmH-49">
          <mxGeometry x="1184.0711805555559" y="430.08680555555554" width="100" height="100" as="geometry">
            <mxPoint x="1259.2361111111113" y="375.08680555555554" as="sourcePoint" />
            <mxPoint x="1330" y="495.08680555555554" as="targetPoint" />
          </mxGeometry>
        </mxCell>
        <mxCell id="0s2U-yhYTDLP14BUSXmH-49" value="" style="fillColor=#CC4125;strokeColor=#660000" vertex="1" parent="0s2U-yhYTDLP14BUSXmH-1">
          <mxGeometry x="1117.5" y="580" width="10" height="90" as="geometry" />
        </mxCell>
        <mxCell id="0s2U-yhYTDLP14BUSXmH-50" value="" style="fillColor=#CC4125;strokeColor=#660000" vertex="1" parent="0s2U-yhYTDLP14BUSXmH-1">
          <mxGeometry x="1330" y="590" width="10" height="70" as="geometry" />
        </mxCell>
        <mxCell id="0s2U-yhYTDLP14BUSXmH-51" value="&lt;&lt;create&gt;&gt;" style="edgeStyle=elbowEdgeStyle;elbow=vertical;verticalLabelPosition=top;verticalAlign=bottom;dashed=1;rounded=0;" edge="1" parent="0s2U-yhYTDLP14BUSXmH-1" source="0s2U-yhYTDLP14BUSXmH-41" target="0s2U-yhYTDLP14BUSXmH-47">
          <mxGeometry x="881.25" y="372.5" width="100" height="100" as="geometry">
            <mxPoint x="1011.25" y="401.8942901234568" as="sourcePoint" />
            <mxPoint x="1128.75" y="401.8942901234568" as="targetPoint" />
            <Array as="points" />
          </mxGeometry>
        </mxCell>
        <mxCell id="0s2U-yhYTDLP14BUSXmH-52" value="&lt;&lt;ajax&gt;&gt;" style="edgeStyle=elbowEdgeStyle;elbow=vertical;verticalLabelPosition=top;verticalAlign=bottom;rounded=0;" edge="1" parent="0s2U-yhYTDLP14BUSXmH-1" source="0s2U-yhYTDLP14BUSXmH-41" target="0s2U-yhYTDLP14BUSXmH-49">
          <mxGeometry x="1045" y="409.5" width="100" height="100" as="geometry">
            <mxPoint x="1024.7839506172838" y="409.5" as="sourcePoint" />
            <mxPoint x="1175" y="409.5" as="targetPoint" />
            <Array as="points" />
          </mxGeometry>
        </mxCell>
        <mxCell id="0s2U-yhYTDLP14BUSXmH-53" value="postComments()" style="edgeStyle=elbowEdgeStyle;elbow=vertical;verticalLabelPosition=top;verticalAlign=bottom;rounded=0;" edge="1" parent="0s2U-yhYTDLP14BUSXmH-1">
          <mxGeometry x="1205" y="359.5" width="100" height="100" as="geometry">
            <mxPoint x="1127.5" y="592.5" as="sourcePoint" />
            <mxPoint x="1330" y="592.5" as="targetPoint" />
            <Array as="points" />
          </mxGeometry>
        </mxCell>
        <mxCell id="0s2U-yhYTDLP14BUSXmH-54" value="&lt;&lt;json&gt;&gt;" style="edgeStyle=elbowEdgeStyle;elbow=vertical;dashed=1;verticalLabelPosition=bottom;verticalAlign=top;rounded=0;" edge="1" parent="0s2U-yhYTDLP14BUSXmH-1">
          <mxGeometry x="1055" y="446" width="100" height="100" as="geometry">
            <mxPoint x="1330" y="656.5" as="sourcePoint" />
            <mxPoint x="1127.5" y="656.5" as="targetPoint" />
            <Array as="points" />
          </mxGeometry>
        </mxCell>
        <mxCell id="0s2U-yhYTDLP14BUSXmH-55" value="&lt;&lt;service&gt;&gt;&#xa;:GimqService" style="shadow=1;fillColor=#A2C4C9;strokeColor=none" vertex="1" parent="0s2U-yhYTDLP14BUSXmH-1">
          <mxGeometry x="1282.5" y="110" width="105" height="50" as="geometry" />
        </mxCell>
        <mxCell id="0s2U-yhYTDLP14BUSXmH-56" value="" style="edgeStyle=none;endArrow=none;dashed=1;rounded=0;" edge="1" parent="0s2U-yhYTDLP14BUSXmH-1" source="0s2U-yhYTDLP14BUSXmH-55" target="0s2U-yhYTDLP14BUSXmH-50">
          <mxGeometry x="1154.0711805555559" y="260" width="100" height="100" as="geometry">
            <mxPoint x="1202.5" y="165" as="sourcePoint" />
            <mxPoint x="1202.5" y="495" as="targetPoint" />
          </mxGeometry>
        </mxCell>
        <mxCell id="0s2U-yhYTDLP14BUSXmH-57" value="" style="fillColor=#CC4125;strokeColor=#660000" vertex="1" parent="0s2U-yhYTDLP14BUSXmH-1">
          <mxGeometry x="180" y="650" width="10" height="130" as="geometry" />
        </mxCell>
        <mxCell id="0s2U-yhYTDLP14BUSXmH-58" value="" style="edgeStyle=elbowEdgeStyle;elbow=vertical;dashed=1;verticalLabelPosition=bottom;verticalAlign=top;rounded=0;" edge="1" parent="0s2U-yhYTDLP14BUSXmH-1">
          <mxGeometry x="487.5" y="714.3418209876543" width="100" height="100" as="geometry">
            <mxPoint x="322.5" y="599.5" as="sourcePoint" />
            <mxPoint x="190" y="599.5" as="targetPoint" />
            <Array as="points" />
          </mxGeometry>
        </mxCell>
        <mxCell id="0s2U-yhYTDLP14BUSXmH-59" value="&lt;&lt;callback&gt;&gt;" style="edgeStyle=elbowEdgeStyle;elbow=vertical;dashed=1;verticalLabelPosition=bottom;verticalAlign=bottom;rounded=0;" edge="1" parent="0s2U-yhYTDLP14BUSXmH-1" source="0s2U-yhYTDLP14BUSXmH-49" target="0s2U-yhYTDLP14BUSXmH-57">
          <mxGeometry x="520" y="609.0779320987654" width="100" height="100" as="geometry">
            <mxPoint x="990" y="601.7361111111111" as="sourcePoint" />
            <mxPoint x="342.49999999999994" y="601.7361111111111" as="targetPoint" />
            <Array as="points" />
          </mxGeometry>
        </mxCell>
        <mxCell id="0s2U-yhYTDLP14BUSXmH-60" value="rt submit_changes" style="rounded=1;fontStyle=1;fillColor=#FFD966;strokeColor=none" vertex="1" parent="0s2U-yhYTDLP14BUSXmH-1">
          <mxGeometry x="30" y="70" width="150" height="30" as="geometry" />
        </mxCell>
        <mxCell id="0s2U-yhYTDLP14BUSXmH-61" value="opt" style="rounded=1;fontStyle=1;fillColor=#FFD966;strokeColor=none" vertex="1" parent="0s2U-yhYTDLP14BUSXmH-1">
          <mxGeometry x="132.5" y="470" width="87.5" height="30" as="geometry" />
        </mxCell>
        <mxCell id="0s2U-yhYTDLP14BUSXmH-62" value="Handle errors from Gimq" style="fillColor=#BFC8DB" vertex="1" parent="0s2U-yhYTDLP14BUSXmH-1">
          <mxGeometry x="170" y="675" width="310" height="60.55555555555554" as="geometry" />
        </mxCell>
        <mxCell id="0s2U-yhYTDLP14BUSXmH-63" value="ref" style="rounded=1;fontStyle=1;fillColor=#FFD966;strokeColor=none" vertex="1" parent="0s2U-yhYTDLP14BUSXmH-1">
          <mxGeometry x="176.25" y="682.8935185185186" width="53.75" height="25" as="geometry" />
        </mxCell>
        <mxCell id="0s2U-yhYTDLP14BUSXmH-64" value="" style="align=left;fillColor=#BFC8DB" vertex="1" parent="0s2U-yhYTDLP14BUSXmH-1">
          <mxGeometry x="169.99999999999997" y="749.7222222222223" width="1201.1944444444443" height="60.55555555555554" as="geometry" />
        </mxCell>
        <mxCell id="0s2U-yhYTDLP14BUSXmH-65" value="ref" style="rounded=1;fontStyle=1;fillColor=#FFD966;strokeColor=none" vertex="1" parent="0s2U-yhYTDLP14BUSXmH-1">
          <mxGeometry x="176.24999999999997" y="757.6157407407409" width="53.75" height="25" as="geometry" />
        </mxCell>
        <mxCell id="0s2U-yhYTDLP14BUSXmH-66" value="Request all changes" style="text;align=left" vertex="1" parent="0s2U-yhYTDLP14BUSXmH-1">
          <mxGeometry x="248.05555555555554" y="770.1157407407408" width="351.80555555555554" height="26" as="geometry" />
        </mxCell>
        <mxCell id="0s2U-yhYTDLP14BUSXmH-67" value="" style="edgeStyle=elbowEdgeStyle;elbow=vertical;endArrow=none;rounded=0;" edge="1" parent="0s2U-yhYTDLP14BUSXmH-1">
          <mxGeometry x="39.999999999999986" y="469.7106481481482" width="100" height="100" as="geometry">
            <mxPoint x="180" y="519.7106481481483" as="sourcePoint" />
            <mxPoint x="129.99999999999997" y="519.7106481481483" as="targetPoint" />
          </mxGeometry>
        </mxCell>
        <mxCell id="0s2U-yhYTDLP14BUSXmH-68" value="" style="edgeStyle=elbowEdgeStyle;elbow=vertical;endArrow=none;rounded=0;" edge="1" parent="0s2U-yhYTDLP14BUSXmH-1">
          <mxGeometry x="40" y="549.7106481481482" width="100" height="100" as="geometry">
            <mxPoint x="180.00000000000003" y="599.7106481481482" as="sourcePoint" />
            <mxPoint x="130" y="599.7106481481482" as="targetPoint" />
          </mxGeometry>
        </mxCell>
        <mxCell id="0s2U-yhYTDLP14BUSXmH-69" value="" style="edgeStyle=elbowEdgeStyle;elbow=vertical;endArrow=none;rounded=0;" edge="1" parent="0s2U-yhYTDLP14BUSXmH-1">
          <mxGeometry x="39.999999999999986" y="609.7106481481482" width="100" height="100" as="geometry">
            <mxPoint x="180" y="659.7106481481482" as="sourcePoint" />
            <mxPoint x="129.99999999999997" y="659.7106481481482" as="targetPoint" />
          </mxGeometry>
        </mxCell>
        <mxCell id="0s2U-yhYTDLP14BUSXmH-70" value="" style="edgeStyle=elbowEdgeStyle;elbow=vertical;endArrow=none;rounded=0;" edge="1" parent="0s2U-yhYTDLP14BUSXmH-1">
          <mxGeometry x="30" y="699.4328703703704" width="100" height="100" as="geometry">
            <mxPoint x="170.00000000000003" y="749.4328703703704" as="sourcePoint" />
            <mxPoint x="120" y="749.4328703703704" as="targetPoint" />
          </mxGeometry>
        </mxCell>
        <mxCell id="0s2U-yhYTDLP14BUSXmH-71" value="" style="edgeStyle=elbowEdgeStyle;elbow=vertical;endArrow=none;rounded=0;" edge="1" parent="0s2U-yhYTDLP14BUSXmH-1">
          <mxGeometry x="29.99999999999993" y="759.9884259259259" width="100" height="100" as="geometry">
            <mxPoint x="169.99999999999994" y="809.9884259259259" as="sourcePoint" />
            <mxPoint x="119.99999999999994" y="809.9884259259259" as="targetPoint" />
          </mxGeometry>
        </mxCell>
        <mxCell id="0s2U-yhYTDLP14BUSXmH-72" value="{5..50ms}" style="edgeStyle=elbowEdgeStyle;elbow=horizontal;startArrow=open;endArrow=open;labelPosition=left;align=right;rounded=0;" edge="1" parent="0s2U-yhYTDLP14BUSXmH-1">
          <mxGeometry x="21.446759259259267" y="529.1666666666667" width="100" height="100" as="geometry">
            <mxPoint x="141.44675925925927" y="519.1666666666667" as="sourcePoint" />
            <mxPoint x="141.44675925925927" y="599.1666666666667" as="targetPoint" />
          </mxGeometry>
        </mxCell>
        <mxCell id="0s2U-yhYTDLP14BUSXmH-73" value="{1..500ms}" style="edgeStyle=elbowEdgeStyle;elbow=horizontal;startArrow=open;endArrow=open;labelPosition=left;align=right;rounded=0;" edge="1" parent="0s2U-yhYTDLP14BUSXmH-1">
          <mxGeometry x="22.893518518518533" y="610" width="100" height="100" as="geometry">
            <mxPoint x="141.44675925925927" y="600" as="sourcePoint" />
            <mxPoint x="141.44675925925927" y="660" as="targetPoint" />
          </mxGeometry>
        </mxCell>
        <mxCell id="0s2U-yhYTDLP14BUSXmH-74" value="{10..50ms}" style="edgeStyle=elbowEdgeStyle;elbow=horizontal;startArrow=open;endArrow=open;labelPosition=left;align=right;rounded=0;" edge="1" parent="0s2U-yhYTDLP14BUSXmH-1">
          <mxGeometry x="-20" y="50" width="100" height="100" as="geometry">
            <mxPoint x="133.94675925925927" y="750.2777777777778" as="sourcePoint" />
            <mxPoint x="133.94675925925927" y="810.2777777777778" as="targetPoint" />
            <mxPoint x="-4.236111111111107" y="-0.2777777777777883" as="offset" />
          </mxGeometry>
        </mxCell>
      </root>
    </mxGraphModel>
  </diagram>
  <diagram id="t5ZcNNc5O-CJHMEI5EXN" name="第 3 页">
    <mxGraphModel dx="1038" dy="536" grid="1" gridSize="10" guides="1" tooltips="1" connect="1" arrows="1" fold="1" page="1" pageScale="1" pageWidth="827" pageHeight="1169" math="0" shadow="0">
      <root>
        <mxCell id="Fdb7uA5J3Opfzq8eFUWo-0" />
        <mxCell id="Fdb7uA5J3Opfzq8eFUWo-1" parent="Fdb7uA5J3Opfzq8eFUWo-0" />
        <mxCell id="Fdb7uA5J3Opfzq8eFUWo-2" value="" style="ellipse;whiteSpace=wrap;html=1;rounded=0;shadow=0;strokeWidth=1;fillColor=none;fontSize=24;align=right" vertex="1" parent="Fdb7uA5J3Opfzq8eFUWo-1">
          <mxGeometry x="180" y="140" width="500" height="230" as="geometry" />
        </mxCell>
        <mxCell id="Fdb7uA5J3Opfzq8eFUWo-3" value="" style="ellipse;whiteSpace=wrap;html=1;rounded=0;shadow=0;strokeWidth=1;fillColor=none;fontSize=24;align=right" vertex="1" parent="Fdb7uA5J3Opfzq8eFUWo-1">
          <mxGeometry x="80" y="220" width="330" height="490" as="geometry" />
        </mxCell>
        <mxCell id="Fdb7uA5J3Opfzq8eFUWo-4" value="" style="ellipse;whiteSpace=wrap;html=1;rounded=0;shadow=0;strokeWidth=1;fillColor=none;fontSize=24;align=right" vertex="1" parent="Fdb7uA5J3Opfzq8eFUWo-1">
          <mxGeometry x="200" y="570" width="380" height="180" as="geometry" />
        </mxCell>
        <mxCell id="Fdb7uA5J3Opfzq8eFUWo-5" value="" style="ellipse;whiteSpace=wrap;html=1;rounded=0;shadow=0;strokeWidth=1;fillColor=none;fontSize=24;align=right" vertex="1" parent="Fdb7uA5J3Opfzq8eFUWo-1">
          <mxGeometry x="614" y="780" width="346" height="210" as="geometry" />
        </mxCell>
        <mxCell id="Fdb7uA5J3Opfzq8eFUWo-6" value="" style="ellipse;whiteSpace=wrap;html=1;rounded=0;shadow=0;strokeWidth=1;fillColor=none;fontSize=24;align=right" vertex="1" parent="Fdb7uA5J3Opfzq8eFUWo-1">
          <mxGeometry x="490" y="770" width="360" height="230" as="geometry" />
        </mxCell>
        <mxCell id="Fdb7uA5J3Opfzq8eFUWo-7" value="" style="ellipse;whiteSpace=wrap;html=1;rounded=0;shadow=0;strokeWidth=1;fillColor=none;fontSize=24;align=right" vertex="1" parent="Fdb7uA5J3Opfzq8eFUWo-1">
          <mxGeometry x="980" y="780" width="290" height="200" as="geometry" />
        </mxCell>
        <mxCell id="Fdb7uA5J3Opfzq8eFUWo-8" value="" style="ellipse;whiteSpace=wrap;html=1;rounded=0;shadow=0;strokeWidth=1;fillColor=none;fontSize=24;align=right" vertex="1" parent="Fdb7uA5J3Opfzq8eFUWo-1">
          <mxGeometry x="1085" y="320" width="350" height="390" as="geometry" />
        </mxCell>
        <mxCell id="Fdb7uA5J3Opfzq8eFUWo-9" value="" style="ellipse;whiteSpace=wrap;html=1;rounded=0;shadow=0;strokeWidth=1;fillColor=none;fontSize=24;align=right" vertex="1" parent="Fdb7uA5J3Opfzq8eFUWo-1">
          <mxGeometry x="865" y="190" width="380" height="370" as="geometry" />
        </mxCell>
        <mxCell id="Fdb7uA5J3Opfzq8eFUWo-10" value="" style="ellipse;whiteSpace=wrap;html=1;rounded=0;shadow=0;strokeWidth=1;fillColor=none;fontSize=24;align=right" vertex="1" parent="Fdb7uA5J3Opfzq8eFUWo-1">
          <mxGeometry x="1095" y="50" width="340" height="360" as="geometry" />
        </mxCell>
        <mxCell id="Fdb7uA5J3Opfzq8eFUWo-11" value="" style="ellipse;whiteSpace=wrap;html=1;rounded=0;shadow=0;strokeWidth=1;fillColor=none;fontSize=24;align=right" vertex="1" parent="Fdb7uA5J3Opfzq8eFUWo-1">
          <mxGeometry x="1010" y="825" width="100" height="120" as="geometry" />
        </mxCell>
        <mxCell id="Fdb7uA5J3Opfzq8eFUWo-12" style="edgeStyle=none;curved=1;html=1;endArrow=none;endFill=0;strokeColor=#0066CC;strokeWidth=2;fontSize=24;rounded=0;" edge="1" parent="Fdb7uA5J3Opfzq8eFUWo-1" source="Fdb7uA5J3Opfzq8eFUWo-13" target="Fdb7uA5J3Opfzq8eFUWo-16">
          <mxGeometry relative="1" as="geometry">
            <Array as="points">
              <mxPoint x="310" y="300" />
            </Array>
          </mxGeometry>
        </mxCell>
        <mxCell id="Fdb7uA5J3Opfzq8eFUWo-13" value="" style="whiteSpace=wrap;html=1;rounded=0;shadow=0;strokeWidth=1;fillColor=#000000;fontSize=24;align=right;strokeColor=none;" vertex="1" parent="Fdb7uA5J3Opfzq8eFUWo-1">
          <mxGeometry x="430" y="230" width="20" height="20" as="geometry" />
        </mxCell>
        <mxCell id="Fdb7uA5J3Opfzq8eFUWo-14" value="" style="whiteSpace=wrap;html=1;rounded=0;shadow=0;strokeWidth=1;fillColor=#000000;fontSize=24;align=right;strokeColor=none;" vertex="1" parent="Fdb7uA5J3Opfzq8eFUWo-1">
          <mxGeometry x="280" y="270" width="20" height="20" as="geometry" />
        </mxCell>
        <mxCell id="Fdb7uA5J3Opfzq8eFUWo-15" style="edgeStyle=none;curved=1;html=1;endArrow=none;endFill=0;strokeColor=#0066CC;strokeWidth=2;fontSize=24;rounded=0;" edge="1" parent="Fdb7uA5J3Opfzq8eFUWo-1" source="Fdb7uA5J3Opfzq8eFUWo-16" target="Fdb7uA5J3Opfzq8eFUWo-20">
          <mxGeometry relative="1" as="geometry">
            <Array as="points">
              <mxPoint x="370" y="520" />
            </Array>
          </mxGeometry>
        </mxCell>
        <mxCell id="Fdb7uA5J3Opfzq8eFUWo-16" value="" style="whiteSpace=wrap;html=1;rounded=0;shadow=0;strokeWidth=1;fillColor=#000000;fontSize=24;align=right;strokeColor=none;" vertex="1" parent="Fdb7uA5J3Opfzq8eFUWo-1">
          <mxGeometry x="220" y="400" width="20" height="20" as="geometry" />
        </mxCell>
        <mxCell id="Fdb7uA5J3Opfzq8eFUWo-17" value="" style="whiteSpace=wrap;html=1;rounded=0;shadow=0;strokeWidth=1;fillColor=#000000;fontSize=24;align=right;strokeColor=none;" vertex="1" parent="Fdb7uA5J3Opfzq8eFUWo-1">
          <mxGeometry x="270" y="630" width="20" height="20" as="geometry" />
        </mxCell>
        <mxCell id="Fdb7uA5J3Opfzq8eFUWo-18" style="edgeStyle=none;curved=1;html=1;endArrow=none;endFill=0;fontSize=24;strokeWidth=2;strokeColor=#00CC00;rounded=0;" edge="1" parent="Fdb7uA5J3Opfzq8eFUWo-1" source="Fdb7uA5J3Opfzq8eFUWo-20" target="Fdb7uA5J3Opfzq8eFUWo-21">
          <mxGeometry relative="1" as="geometry">
            <mxPoint x="460" y="860" as="targetPoint" />
            <Array as="points">
              <mxPoint x="580" y="730" />
            </Array>
          </mxGeometry>
        </mxCell>
        <mxCell id="Fdb7uA5J3Opfzq8eFUWo-19" style="edgeStyle=none;curved=1;html=1;endArrow=none;endFill=0;fontSize=24;strokeWidth=2;strokeColor=#00CC00;rounded=0;" edge="1" parent="Fdb7uA5J3Opfzq8eFUWo-1" source="Fdb7uA5J3Opfzq8eFUWo-20" target="Fdb7uA5J3Opfzq8eFUWo-37">
          <mxGeometry relative="1" as="geometry">
            <Array as="points">
              <mxPoint x="740" y="310" />
            </Array>
          </mxGeometry>
        </mxCell>
        <mxCell id="Fdb7uA5J3Opfzq8eFUWo-20" value="" style="whiteSpace=wrap;html=1;rounded=0;shadow=0;strokeWidth=1;fillColor=#000000;fontSize=24;align=right;strokeColor=none;" vertex="1" parent="Fdb7uA5J3Opfzq8eFUWo-1">
          <mxGeometry x="410" y="670" width="20" height="20" as="geometry" />
        </mxCell>
        <mxCell id="Fdb7uA5J3Opfzq8eFUWo-21" value="" style="whiteSpace=wrap;html=1;rounded=0;shadow=0;strokeWidth=1;fillColor=#000000;fontSize=24;align=right;strokeColor=none;" vertex="1" parent="Fdb7uA5J3Opfzq8eFUWo-1">
          <mxGeometry x="550" y="865" width="20" height="20" as="geometry" />
        </mxCell>
        <mxCell id="Fdb7uA5J3Opfzq8eFUWo-22" value="" style="whiteSpace=wrap;html=1;rounded=0;shadow=0;strokeWidth=1;fillColor=#000000;fontSize=24;align=right;strokeColor=none;" vertex="1" parent="Fdb7uA5J3Opfzq8eFUWo-1">
          <mxGeometry x="730" y="870" width="20" height="20" as="geometry" />
        </mxCell>
        <mxCell id="Fdb7uA5J3Opfzq8eFUWo-23" value="" style="whiteSpace=wrap;html=1;rounded=0;shadow=0;strokeWidth=1;fillColor=#000000;fontSize=24;align=right;strokeColor=none;" vertex="1" parent="Fdb7uA5J3Opfzq8eFUWo-1">
          <mxGeometry x="890" y="865" width="20" height="20" as="geometry" />
        </mxCell>
        <mxCell id="Fdb7uA5J3Opfzq8eFUWo-24" style="edgeStyle=none;curved=1;html=1;endArrow=none;endFill=0;strokeColor=#FF0000;strokeWidth=2;fontSize=24;rounded=0;" edge="1" parent="Fdb7uA5J3Opfzq8eFUWo-1" source="Fdb7uA5J3Opfzq8eFUWo-27" target="Fdb7uA5J3Opfzq8eFUWo-30">
          <mxGeometry relative="1" as="geometry">
            <mxPoint x="1440" y="610" as="targetPoint" />
            <Array as="points">
              <mxPoint x="1100" y="660" />
            </Array>
          </mxGeometry>
        </mxCell>
        <mxCell id="Fdb7uA5J3Opfzq8eFUWo-25" style="edgeStyle=none;curved=1;html=1;endArrow=none;endFill=0;strokeColor=#FF0000;strokeWidth=2;fontSize=24;rounded=0;" edge="1" parent="Fdb7uA5J3Opfzq8eFUWo-1" source="Fdb7uA5J3Opfzq8eFUWo-27" target="Fdb7uA5J3Opfzq8eFUWo-23">
          <mxGeometry relative="1" as="geometry">
            <Array as="points">
              <mxPoint x="980" y="840" />
            </Array>
          </mxGeometry>
        </mxCell>
        <mxCell id="Fdb7uA5J3Opfzq8eFUWo-26" style="edgeStyle=none;curved=1;html=1;endArrow=none;endFill=0;strokeColor=#FF0000;strokeWidth=2;fontSize=24;rounded=0;" edge="1" parent="Fdb7uA5J3Opfzq8eFUWo-1" source="Fdb7uA5J3Opfzq8eFUWo-27" target="Fdb7uA5J3Opfzq8eFUWo-13">
          <mxGeometry relative="1" as="geometry">
            <Array as="points">
              <mxPoint x="860" y="490" />
            </Array>
          </mxGeometry>
        </mxCell>
        <mxCell id="Fdb7uA5J3Opfzq8eFUWo-27" value="" style="whiteSpace=wrap;html=1;rounded=0;shadow=0;strokeWidth=1;fillColor=#000000;fontSize=24;align=right;strokeColor=none;" vertex="1" parent="Fdb7uA5J3Opfzq8eFUWo-1">
          <mxGeometry x="1055" y="870" width="20" height="20" as="geometry" />
        </mxCell>
        <mxCell id="Fdb7uA5J3Opfzq8eFUWo-28" value="" style="whiteSpace=wrap;html=1;rounded=0;shadow=0;strokeWidth=1;fillColor=#000000;fontSize=24;align=right;strokeColor=none;" vertex="1" parent="Fdb7uA5J3Opfzq8eFUWo-1">
          <mxGeometry x="1180" y="860" width="20" height="20" as="geometry" />
        </mxCell>
        <mxCell id="Fdb7uA5J3Opfzq8eFUWo-29" style="edgeStyle=none;curved=1;html=1;endArrow=none;endFill=0;strokeColor=#FF0000;strokeWidth=2;fontSize=24;rounded=0;" edge="1" parent="Fdb7uA5J3Opfzq8eFUWo-1" source="Fdb7uA5J3Opfzq8eFUWo-30" target="Fdb7uA5J3Opfzq8eFUWo-35">
          <mxGeometry relative="1" as="geometry">
            <Array as="points">
              <mxPoint x="1290" y="430" />
            </Array>
          </mxGeometry>
        </mxCell>
        <mxCell id="Fdb7uA5J3Opfzq8eFUWo-30" value="" style="whiteSpace=wrap;html=1;rounded=0;shadow=0;strokeWidth=1;fillColor=#000000;fontSize=24;align=right;strokeColor=none;" vertex="1" parent="Fdb7uA5J3Opfzq8eFUWo-1">
          <mxGeometry x="1265" y="515" width="20" height="20" as="geometry" />
        </mxCell>
        <mxCell id="Fdb7uA5J3Opfzq8eFUWo-31" value="" style="whiteSpace=wrap;html=1;rounded=0;shadow=0;strokeWidth=1;fillColor=#000000;fontSize=24;align=right;strokeColor=none;" vertex="1" parent="Fdb7uA5J3Opfzq8eFUWo-1">
          <mxGeometry x="1140" y="455" width="20" height="20" as="geometry" />
        </mxCell>
        <mxCell id="Fdb7uA5J3Opfzq8eFUWo-32" style="edgeStyle=none;curved=1;html=1;entryX=0.5;entryY=0;endArrow=none;endFill=0;strokeColor=#0066CC;strokeWidth=2;fontSize=24;rounded=0;" edge="1" parent="Fdb7uA5J3Opfzq8eFUWo-1" source="Fdb7uA5J3Opfzq8eFUWo-35" target="Fdb7uA5J3Opfzq8eFUWo-31">
          <mxGeometry relative="1" as="geometry">
            <Array as="points">
              <mxPoint x="1150" y="410" />
            </Array>
          </mxGeometry>
        </mxCell>
        <mxCell id="Fdb7uA5J3Opfzq8eFUWo-33" style="edgeStyle=none;curved=1;html=1;endArrow=none;endFill=0;strokeColor=#0066CC;strokeWidth=2;fontSize=24;rounded=0;" edge="1" parent="Fdb7uA5J3Opfzq8eFUWo-1" source="Fdb7uA5J3Opfzq8eFUWo-35" target="Fdb7uA5J3Opfzq8eFUWo-36">
          <mxGeometry relative="1" as="geometry">
            <Array as="points">
              <mxPoint x="1250" y="350" />
            </Array>
          </mxGeometry>
        </mxCell>
        <mxCell id="Fdb7uA5J3Opfzq8eFUWo-34" style="edgeStyle=none;curved=1;html=1;endArrow=none;endFill=0;strokeColor=#0066CC;strokeWidth=2;fontSize=24;rounded=0;" edge="1" parent="Fdb7uA5J3Opfzq8eFUWo-1" source="Fdb7uA5J3Opfzq8eFUWo-35" target="Fdb7uA5J3Opfzq8eFUWo-13">
          <mxGeometry relative="1" as="geometry">
            <mxPoint x="730" y="350" as="targetPoint" />
            <Array as="points">
              <mxPoint x="850" y="230" />
            </Array>
          </mxGeometry>
        </mxCell>
        <mxCell id="Fdb7uA5J3Opfzq8eFUWo-35" value="" style="whiteSpace=wrap;html=1;rounded=0;shadow=0;strokeWidth=1;fillColor=#000000;fontSize=24;align=right;strokeColor=none;" vertex="1" parent="Fdb7uA5J3Opfzq8eFUWo-1">
          <mxGeometry x="1200" y="355" width="20" height="20" as="geometry" />
        </mxCell>
        <mxCell id="Fdb7uA5J3Opfzq8eFUWo-36" value="" style="whiteSpace=wrap;html=1;rounded=0;shadow=0;strokeWidth=1;fillColor=#000000;fontSize=24;align=right;strokeColor=none;" vertex="1" parent="Fdb7uA5J3Opfzq8eFUWo-1">
          <mxGeometry x="1285" y="355" width="20" height="20" as="geometry" />
        </mxCell>
        <mxCell id="Fdb7uA5J3Opfzq8eFUWo-37" value="" style="whiteSpace=wrap;html=1;rounded=0;shadow=0;strokeWidth=1;fillColor=#000000;fontSize=24;align=right;strokeColor=none;" vertex="1" parent="Fdb7uA5J3Opfzq8eFUWo-1">
          <mxGeometry x="1150" y="270" width="20" height="20" as="geometry" />
        </mxCell>
        <mxCell id="Fdb7uA5J3Opfzq8eFUWo-38" value="" style="whiteSpace=wrap;html=1;rounded=0;shadow=0;strokeWidth=1;fillColor=#000000;fontSize=24;align=right;strokeColor=none;" vertex="1" parent="Fdb7uA5J3Opfzq8eFUWo-1">
          <mxGeometry x="1265" y="200" width="20" height="20" as="geometry" />
        </mxCell>
        <mxCell id="Fdb7uA5J3Opfzq8eFUWo-39" value="" style="whiteSpace=wrap;html=1;rounded=0;shadow=0;strokeWidth=1;fillColor=#000000;fontSize=24;align=right;strokeColor=none;" vertex="1" parent="Fdb7uA5J3Opfzq8eFUWo-1">
          <mxGeometry x="1000" y="365" width="20" height="20" as="geometry" />
        </mxCell>
        <mxCell id="Fdb7uA5J3Opfzq8eFUWo-40" value="" style="curved=1;endArrow=none;html=1;fontSize=24;fontColor=#000000;endFill=0;strokeWidth=2;strokeColor=#00CC00;rounded=0;edgeStyle=orthogonalEdgeStyle;" edge="1" parent="Fdb7uA5J3Opfzq8eFUWo-1" source="Fdb7uA5J3Opfzq8eFUWo-13" target="Fdb7uA5J3Opfzq8eFUWo-20">
          <mxGeometry width="50" height="50" relative="1" as="geometry">
            <mxPoint x="640" y="540" as="sourcePoint" />
            <mxPoint x="760" y="330" as="targetPoint" />
            <Array as="points">
              <mxPoint x="490" y="320" />
              <mxPoint x="490" y="580" />
            </Array>
          </mxGeometry>
        </mxCell>
        <mxCell id="Fdb7uA5J3Opfzq8eFUWo-41" value="" style="curved=1;endArrow=none;html=1;fontSize=24;endFill=0;strokeWidth=2;strokeColor=#00CC00;rounded=0;edgeStyle=orthogonalEdgeStyle;" edge="1" parent="Fdb7uA5J3Opfzq8eFUWo-1" source="Fdb7uA5J3Opfzq8eFUWo-17" target="Fdb7uA5J3Opfzq8eFUWo-20">
          <mxGeometry width="50" height="50" relative="1" as="geometry">
            <mxPoint x="260" y="800" as="sourcePoint" />
            <mxPoint x="310" y="750" as="targetPoint" />
            <Array as="points">
              <mxPoint x="350" y="610" />
              <mxPoint x="400" y="636" />
            </Array>
          </mxGeometry>
        </mxCell>
        <mxCell id="Fdb7uA5J3Opfzq8eFUWo-42" value="A" style="text;html=1;strokeColor=none;fillColor=none;align=center;verticalAlign=middle;whiteSpace=wrap;rounded=0;shadow=0;fontSize=20;" vertex="1" parent="Fdb7uA5J3Opfzq8eFUWo-1">
          <mxGeometry x="390" y="110" width="80" height="30" as="geometry" />
        </mxCell>
        <mxCell id="Fdb7uA5J3Opfzq8eFUWo-43" value="B" style="text;html=1;strokeColor=none;fillColor=none;align=center;verticalAlign=middle;whiteSpace=wrap;rounded=0;shadow=0;fontSize=20;" vertex="1" parent="Fdb7uA5J3Opfzq8eFUWo-1">
          <mxGeometry x="20" y="450" width="80" height="30" as="geometry" />
        </mxCell>
        <mxCell id="Fdb7uA5J3Opfzq8eFUWo-44" value="C" style="text;html=1;strokeColor=none;fillColor=none;align=center;verticalAlign=middle;whiteSpace=wrap;rounded=0;shadow=0;fontSize=20;" vertex="1" parent="Fdb7uA5J3Opfzq8eFUWo-1">
          <mxGeometry x="370" y="750" width="80" height="30" as="geometry" />
        </mxCell>
        <mxCell id="Fdb7uA5J3Opfzq8eFUWo-45" value="D" style="text;html=1;strokeColor=none;fillColor=none;align=center;verticalAlign=middle;whiteSpace=wrap;rounded=0;shadow=0;fontSize=20;" vertex="1" parent="Fdb7uA5J3Opfzq8eFUWo-1">
          <mxGeometry x="630" y="740" width="80" height="30" as="geometry" />
        </mxCell>
        <mxCell id="Fdb7uA5J3Opfzq8eFUWo-46" value="E" style="text;html=1;strokeColor=none;fillColor=none;align=center;verticalAlign=middle;whiteSpace=wrap;rounded=0;shadow=0;fontSize=20;" vertex="1" parent="Fdb7uA5J3Opfzq8eFUWo-1">
          <mxGeometry x="787" y="750" width="80" height="30" as="geometry" />
        </mxCell>
        <mxCell id="Fdb7uA5J3Opfzq8eFUWo-47" value="F" style="text;html=1;strokeColor=none;fillColor=none;align=center;verticalAlign=middle;whiteSpace=wrap;rounded=0;shadow=0;fontSize=20;" vertex="1" parent="Fdb7uA5J3Opfzq8eFUWo-1">
          <mxGeometry x="1095" y="750" width="80" height="30" as="geometry" />
        </mxCell>
        <mxCell id="Fdb7uA5J3Opfzq8eFUWo-48" value="G" style="text;html=1;strokeColor=none;fillColor=none;align=center;verticalAlign=middle;whiteSpace=wrap;rounded=0;shadow=0;fontSize=20;" vertex="1" parent="Fdb7uA5J3Opfzq8eFUWo-1">
          <mxGeometry x="1070" y="915" width="80" height="30" as="geometry" />
        </mxCell>
        <mxCell id="Fdb7uA5J3Opfzq8eFUWo-49" value="H" style="text;html=1;strokeColor=none;fillColor=none;align=center;verticalAlign=middle;whiteSpace=wrap;rounded=0;shadow=0;fontSize=20;" vertex="1" parent="Fdb7uA5J3Opfzq8eFUWo-1">
          <mxGeometry x="900" y="185" width="80" height="30" as="geometry" />
        </mxCell>
        <mxCell id="Fdb7uA5J3Opfzq8eFUWo-50" value="I" style="text;html=1;strokeColor=none;fillColor=none;align=center;verticalAlign=middle;whiteSpace=wrap;rounded=0;shadow=0;fontSize=20;" vertex="1" parent="Fdb7uA5J3Opfzq8eFUWo-1">
          <mxGeometry x="1235" y="20" width="80" height="30" as="geometry" />
        </mxCell>
        <mxCell id="Fdb7uA5J3Opfzq8eFUWo-51" value="J" style="text;html=1;strokeColor=none;fillColor=none;align=center;verticalAlign=middle;whiteSpace=wrap;rounded=0;shadow=0;fontSize=20;" vertex="1" parent="Fdb7uA5J3Opfzq8eFUWo-1">
          <mxGeometry x="1390" y="400" width="80" height="30" as="geometry" />
        </mxCell>
      </root>
    </mxGraphModel>
  </diagram>
  <diagram id="cT9aS1l8KC-0nMCLLAZ2" name="第 4 页">
    <mxGraphModel dx="1038" dy="536" grid="1" gridSize="10" guides="1" tooltips="1" connect="1" arrows="1" fold="1" page="1" pageScale="1" pageWidth="827" pageHeight="1169" math="0" shadow="0">
      <root>
        <mxCell id="CVmZfJUhmrhsSQBnZkMG-0" />
        <mxCell id="CVmZfJUhmrhsSQBnZkMG-1" parent="CVmZfJUhmrhsSQBnZkMG-0" />
        <UserObject label="" plantUmlData="{&quot;data&quot;:&quot;@startuml\nskinparam shadowing false\nAlice -&gt; Bob: Authentication Request\nBob --&gt; Alice: Authentication Response\n\nAlice -&gt; Bob: Another authentication Request\nAlice &lt;-- Bob: Another authentication Response\n\nAlice --&gt; Bob: hhhhh\nBob -&gt; aaaa: dflsfj\naaaa --&gt; cccc:lsdjfsfj\n@enduml&quot;,&quot;format&quot;:&quot;svg&quot;}" id="CVmZfJUhmrhsSQBnZkMG-2">
          <mxCell style="shape=image;noLabel=1;verticalAlign=top;aspect=fixed;imageAspect=0;image=data:image/svg+xml,PD94bWwgdmVyc2lvbj0iMS4wIiBlbmNvZGluZz0iVVRGLTgiIHN0YW5kYWxvbmU9Im5vIj8+PHN2ZyB4bWxucz0iaHR0cDovL3d3dy53My5vcmcvMjAwMC9zdmciIHhtbG5zOnhsaW5rPSJodHRwOi8vd3d3LnczLm9yZy8xOTk5L3hsaW5rIiBjb250ZW50U2NyaXB0VHlwZT0iYXBwbGljYXRpb24vZWNtYXNjcmlwdCIgY29udGVudFN0eWxlVHlwZT0idGV4dC9jc3MiIGhlaWdodD0iMjk1cHgiIHByZXNlcnZlQXNwZWN0UmF0aW89Im5vbmUiIHN0eWxlPSJ3aWR0aDo0MTZweDtoZWlnaHQ6Mjk1cHg7YmFja2dyb3VuZDojRkZGRkZGOyIgdmVyc2lvbj0iMS4xIiB2aWV3Qm94PSIwIDAgNDE2IDI5NSIgd2lkdGg9IjQxNnB4IiB6b29tQW5kUGFuPSJtYWduaWZ5Ij48ZGVmcy8+PGc+PGxpbmUgc3R5bGU9InN0cm9rZTojQTgwMDM2O3N0cm9rZS13aWR0aDoxLjA7c3Ryb2tlLWRhc2hhcnJheTo1LjAsNS4wOyIgeDE9IjI5IiB4Mj0iMjkiIHkxPSIzNi4yOTY5IiB5Mj0iMjYwLjIyNjYiLz48bGluZSBzdHlsZT0ic3Ryb2tlOiNBODAwMzY7c3Ryb2tlLXdpZHRoOjEuMDtzdHJva2UtZGFzaGFycmF5OjUuMCw1LjA7IiB4MT0iMjY3IiB4Mj0iMjY3IiB5MT0iMzYuMjk2OSIgeTI9IjI2MC4yMjY2Ii8+PGxpbmUgc3R5bGU9InN0cm9rZTojQTgwMDM2O3N0cm9rZS13aWR0aDoxLjA7c3Ryb2tlLWRhc2hhcnJheTo1LjAsNS4wOyIgeDE9IjMyMi41IiB4Mj0iMzIyLjUiIHkxPSIzNi4yOTY5IiB5Mj0iMjYwLjIyNjYiLz48bGluZSBzdHlsZT0ic3Ryb2tlOiNBODAwMzY7c3Ryb2tlLXdpZHRoOjEuMDtzdHJva2UtZGFzaGFycmF5OjUuMCw1LjA7IiB4MT0iMzg3LjUiIHgyPSIzODcuNSIgeTE9IjM2LjI5NjkiIHkyPSIyNjAuMjI2NiIvPjxyZWN0IGZpbGw9IiNGRUZFQ0UiIGhlaWdodD0iMzAuMjk2OSIgc3R5bGU9InN0cm9rZTojQTgwMDM2O3N0cm9rZS13aWR0aDoxLjU7IiB3aWR0aD0iNDkiIHg9IjUiIHk9IjUiLz48dGV4dCBmaWxsPSIjMDAwMDAwIiBmb250LWZhbWlseT0ic2Fucy1zZXJpZiIgZm9udC1zaXplPSIxNCIgbGVuZ3RoQWRqdXN0PSJzcGFjaW5nIiB0ZXh0TGVuZ3RoPSIzNSIgeD0iMTIiIHk9IjI0Ljk5NTEiPkFsaWNlPC90ZXh0PjxyZWN0IGZpbGw9IiNGRUZFQ0UiIGhlaWdodD0iMzAuMjk2OSIgc3R5bGU9InN0cm9rZTojQTgwMDM2O3N0cm9rZS13aWR0aDoxLjU7IiB3aWR0aD0iNDkiIHg9IjUiIHk9IjI1OS4yMjY2Ii8+PHRleHQgZmlsbD0iIzAwMDAwMCIgZm9udC1mYW1pbHk9InNhbnMtc2VyaWYiIGZvbnQtc2l6ZT0iMTQiIGxlbmd0aEFkanVzdD0ic3BhY2luZyIgdGV4dExlbmd0aD0iMzUiIHg9IjEyIiB5PSIyNzkuMjIxNyI+QWxpY2U8L3RleHQ+PHJlY3QgZmlsbD0iI0ZFRkVDRSIgaGVpZ2h0PSIzMC4yOTY5IiBzdHlsZT0ic3Ryb2tlOiNBODAwMzY7c3Ryb2tlLXdpZHRoOjEuNTsiIHdpZHRoPSI0MyIgeD0iMjQ2IiB5PSI1Ii8+PHRleHQgZmlsbD0iIzAwMDAwMCIgZm9udC1mYW1pbHk9InNhbnMtc2VyaWYiIGZvbnQtc2l6ZT0iMTQiIGxlbmd0aEFkanVzdD0ic3BhY2luZyIgdGV4dExlbmd0aD0iMjkiIHg9IjI1MyIgeT0iMjQuOTk1MSI+Qm9iPC90ZXh0PjxyZWN0IGZpbGw9IiNGRUZFQ0UiIGhlaWdodD0iMzAuMjk2OSIgc3R5bGU9InN0cm9rZTojQTgwMDM2O3N0cm9rZS13aWR0aDoxLjU7IiB3aWR0aD0iNDMiIHg9IjI0NiIgeT0iMjU5LjIyNjYiLz48dGV4dCBmaWxsPSIjMDAwMDAwIiBmb250LWZhbWlseT0ic2Fucy1zZXJpZiIgZm9udC1zaXplPSIxNCIgbGVuZ3RoQWRqdXN0PSJzcGFjaW5nIiB0ZXh0TGVuZ3RoPSIyOSIgeD0iMjUzIiB5PSIyNzkuMjIxNyI+Qm9iPC90ZXh0PjxyZWN0IGZpbGw9IiNGRUZFQ0UiIGhlaWdodD0iMzAuMjk2OSIgc3R5bGU9InN0cm9rZTojQTgwMDM2O3N0cm9rZS13aWR0aDoxLjU7IiB3aWR0aD0iNDYiIHg9IjI5OS41IiB5PSI1Ii8+PHRleHQgZmlsbD0iIzAwMDAwMCIgZm9udC1mYW1pbHk9InNhbnMtc2VyaWYiIGZvbnQtc2l6ZT0iMTQiIGxlbmd0aEFkanVzdD0ic3BhY2luZyIgdGV4dExlbmd0aD0iMzIiIHg9IjMwNi41IiB5PSIyNC45OTUxIj5hYWFhPC90ZXh0PjxyZWN0IGZpbGw9IiNGRUZFQ0UiIGhlaWdodD0iMzAuMjk2OSIgc3R5bGU9InN0cm9rZTojQTgwMDM2O3N0cm9rZS13aWR0aDoxLjU7IiB3aWR0aD0iNDYiIHg9IjI5OS41IiB5PSIyNTkuMjI2NiIvPjx0ZXh0IGZpbGw9IiMwMDAwMDAiIGZvbnQtZmFtaWx5PSJzYW5zLXNlcmlmIiBmb250LXNpemU9IjE0IiBsZW5ndGhBZGp1c3Q9InNwYWNpbmciIHRleHRMZW5ndGg9IjMyIiB4PSIzMDYuNSIgeT0iMjc5LjIyMTciPmFhYWE8L3RleHQ+PHJlY3QgZmlsbD0iI0ZFRkVDRSIgaGVpZ2h0PSIzMC4yOTY5IiBzdHlsZT0ic3Ryb2tlOiNBODAwMzY7c3Ryb2tlLXdpZHRoOjEuNTsiIHdpZHRoPSI0NiIgeD0iMzY0LjUiIHk9IjUiLz48dGV4dCBmaWxsPSIjMDAwMDAwIiBmb250LWZhbWlseT0ic2Fucy1zZXJpZiIgZm9udC1zaXplPSIxNCIgbGVuZ3RoQWRqdXN0PSJzcGFjaW5nIiB0ZXh0TGVuZ3RoPSIzMiIgeD0iMzcxLjUiIHk9IjI0Ljk5NTEiPmNjY2M8L3RleHQ+PHJlY3QgZmlsbD0iI0ZFRkVDRSIgaGVpZ2h0PSIzMC4yOTY5IiBzdHlsZT0ic3Ryb2tlOiNBODAwMzY7c3Ryb2tlLXdpZHRoOjEuNTsiIHdpZHRoPSI0NiIgeD0iMzY0LjUiIHk9IjI1OS4yMjY2Ii8+PHRleHQgZmlsbD0iIzAwMDAwMCIgZm9udC1mYW1pbHk9InNhbnMtc2VyaWYiIGZvbnQtc2l6ZT0iMTQiIGxlbmd0aEFkanVzdD0ic3BhY2luZyIgdGV4dExlbmd0aD0iMzIiIHg9IjM3MS41IiB5PSIyNzkuMjIxNyI+Y2NjYzwvdGV4dD48cG9seWdvbiBmaWxsPSIjQTgwMDM2IiBwb2ludHM9IjI1NS41LDYzLjQyOTcsMjY1LjUsNjcuNDI5NywyNTUuNSw3MS40Mjk3LDI1OS41LDY3LjQyOTciIHN0eWxlPSJzdHJva2U6I0E4MDAzNjtzdHJva2Utd2lkdGg6MS4wOyIvPjxsaW5lIHN0eWxlPSJzdHJva2U6I0E4MDAzNjtzdHJva2Utd2lkdGg6MS4wOyIgeDE9IjI5LjUiIHgyPSIyNjEuNSIgeTE9IjY3LjQyOTciIHkyPSI2Ny40Mjk3Ii8+PHRleHQgZmlsbD0iIzAwMDAwMCIgZm9udC1mYW1pbHk9InNhbnMtc2VyaWYiIGZvbnQtc2l6ZT0iMTMiIGxlbmd0aEFkanVzdD0ic3BhY2luZyIgdGV4dExlbmd0aD0iMTUwIiB4PSIzNi41IiB5PSI2Mi4zNjM4Ij5BdXRoZW50aWNhdGlvbiBSZXF1ZXN0PC90ZXh0Pjxwb2x5Z29uIGZpbGw9IiNBODAwMzYiIHBvaW50cz0iNDAuNSw5Mi41NjI1LDMwLjUsOTYuNTYyNSw0MC41LDEwMC41NjI1LDM2LjUsOTYuNTYyNSIgc3R5bGU9InN0cm9rZTojQTgwMDM2O3N0cm9rZS13aWR0aDoxLjA7Ii8+PGxpbmUgc3R5bGU9InN0cm9rZTojQTgwMDM2O3N0cm9rZS13aWR0aDoxLjA7c3Ryb2tlLWRhc2hhcnJheToyLjAsMi4wOyIgeDE9IjM0LjUiIHgyPSIyNjYuNSIgeTE9Ijk2LjU2MjUiIHkyPSI5Ni41NjI1Ii8+PHRleHQgZmlsbD0iIzAwMDAwMCIgZm9udC1mYW1pbHk9InNhbnMtc2VyaWYiIGZvbnQtc2l6ZT0iMTMiIGxlbmd0aEFkanVzdD0ic3BhY2luZyIgdGV4dExlbmd0aD0iMTYwIiB4PSI0Ni41IiB5PSI5MS40OTY2Ij5BdXRoZW50aWNhdGlvbiBSZXNwb25zZTwvdGV4dD48cG9seWdvbiBmaWxsPSIjQTgwMDM2IiBwb2ludHM9IjI1NS41LDEyMS42OTUzLDI2NS41LDEyNS42OTUzLDI1NS41LDEyOS42OTUzLDI1OS41LDEyNS42OTUzIiBzdHlsZT0ic3Ryb2tlOiNBODAwMzY7c3Ryb2tlLXdpZHRoOjEuMDsiLz48bGluZSBzdHlsZT0ic3Ryb2tlOiNBODAwMzY7c3Ryb2tlLXdpZHRoOjEuMDsiIHgxPSIyOS41IiB4Mj0iMjYxLjUiIHkxPSIxMjUuNjk1MyIgeTI9IjEyNS42OTUzIi8+PHRleHQgZmlsbD0iIzAwMDAwMCIgZm9udC1mYW1pbHk9InNhbnMtc2VyaWYiIGZvbnQtc2l6ZT0iMTMiIGxlbmd0aEFkanVzdD0ic3BhY2luZyIgdGV4dExlbmd0aD0iMjA0IiB4PSIzNi41IiB5PSIxMjAuNjI5NCI+QW5vdGhlciBhdXRoZW50aWNhdGlvbiBSZXF1ZXN0PC90ZXh0Pjxwb2x5Z29uIGZpbGw9IiNBODAwMzYiIHBvaW50cz0iNDAuNSwxNTAuODI4MSwzMC41LDE1NC44MjgxLDQwLjUsMTU4LjgyODEsMzYuNSwxNTQuODI4MSIgc3R5bGU9InN0cm9rZTojQTgwMDM2O3N0cm9rZS13aWR0aDoxLjA7Ii8+PGxpbmUgc3R5bGU9InN0cm9rZTojQTgwMDM2O3N0cm9rZS13aWR0aDoxLjA7c3Ryb2tlLWRhc2hhcnJheToyLjAsMi4wOyIgeDE9IjM0LjUiIHgyPSIyNjYuNSIgeTE9IjE1NC44MjgxIiB5Mj0iMTU0LjgyODEiLz48dGV4dCBmaWxsPSIjMDAwMDAwIiBmb250LWZhbWlseT0ic2Fucy1zZXJpZiIgZm9udC1zaXplPSIxMyIgbGVuZ3RoQWRqdXN0PSJzcGFjaW5nIiB0ZXh0TGVuZ3RoPSIyMTQiIHg9IjQ2LjUiIHk9IjE0OS43NjIyIj5Bbm90aGVyIGF1dGhlbnRpY2F0aW9uIFJlc3BvbnNlPC90ZXh0Pjxwb2x5Z29uIGZpbGw9IiNBODAwMzYiIHBvaW50cz0iMjU1LjUsMTc5Ljk2MDksMjY1LjUsMTgzLjk2MDksMjU1LjUsMTg3Ljk2MDksMjU5LjUsMTgzLjk2MDkiIHN0eWxlPSJzdHJva2U6I0E4MDAzNjtzdHJva2Utd2lkdGg6MS4wOyIvPjxsaW5lIHN0eWxlPSJzdHJva2U6I0E4MDAzNjtzdHJva2Utd2lkdGg6MS4wO3N0cm9rZS1kYXNoYXJyYXk6Mi4wLDIuMDsiIHgxPSIyOS41IiB4Mj0iMjYxLjUiIHkxPSIxODMuOTYwOSIgeTI9IjE4My45NjA5Ii8+PHRleHQgZmlsbD0iIzAwMDAwMCIgZm9udC1mYW1pbHk9InNhbnMtc2VyaWYiIGZvbnQtc2l6ZT0iMTMiIGxlbmd0aEFkanVzdD0ic3BhY2luZyIgdGV4dExlbmd0aD0iNDAiIHg9IjM2LjUiIHk9IjE3OC44OTUiPmhoaGhoPC90ZXh0Pjxwb2x5Z29uIGZpbGw9IiNBODAwMzYiIHBvaW50cz0iMzEwLjUsMjA5LjA5MzgsMzIwLjUsMjEzLjA5MzgsMzEwLjUsMjE3LjA5MzgsMzE0LjUsMjEzLjA5MzgiIHN0eWxlPSJzdHJva2U6I0E4MDAzNjtzdHJva2Utd2lkdGg6MS4wOyIvPjxsaW5lIHN0eWxlPSJzdHJva2U6I0E4MDAzNjtzdHJva2Utd2lkdGg6MS4wOyIgeDE9IjI2Ny41IiB4Mj0iMzE2LjUiIHkxPSIyMTMuMDkzOCIgeTI9IjIxMy4wOTM4Ii8+PHRleHQgZmlsbD0iIzAwMDAwMCIgZm9udC1mYW1pbHk9InNhbnMtc2VyaWYiIGZvbnQtc2l6ZT0iMTMiIGxlbmd0aEFkanVzdD0ic3BhY2luZyIgdGV4dExlbmd0aD0iMzEiIHg9IjI3NC41IiB5PSIyMDguMDI3OCI+ZGZsc2ZqPC90ZXh0Pjxwb2x5Z29uIGZpbGw9IiNBODAwMzYiIHBvaW50cz0iMzc1LjUsMjM4LjIyNjYsMzg1LjUsMjQyLjIyNjYsMzc1LjUsMjQ2LjIyNjYsMzc5LjUsMjQyLjIyNjYiIHN0eWxlPSJzdHJva2U6I0E4MDAzNjtzdHJva2Utd2lkdGg6MS4wOyIvPjxsaW5lIHN0eWxlPSJzdHJva2U6I0E4MDAzNjtzdHJva2Utd2lkdGg6MS4wO3N0cm9rZS1kYXNoYXJyYXk6Mi4wLDIuMDsiIHgxPSIzMjIuNSIgeDI9IjM4MS41IiB5MT0iMjQyLjIyNjYiIHkyPSIyNDIuMjI2NiIvPjx0ZXh0IGZpbGw9IiMwMDAwMDAiIGZvbnQtZmFtaWx5PSJzYW5zLXNlcmlmIiBmb250LXNpemU9IjEzIiBsZW5ndGhBZGp1c3Q9InNwYWNpbmciIHRleHRMZW5ndGg9IjQxIiB4PSIzMjkuNSIgeT0iMjM3LjE2MDYiPmxzZGpmc2ZqPC90ZXh0PjwhLS1NRDU9WzIwNTJlMzIzYmU3ZmY2ZDAzYjc0NTA4NjIzN2FmNWU3XQpAc3RhcnR1bWwNCnNraW5wYXJhbSBzaGFkb3dpbmcgZmFsc2UNCkFsaWNlIC0+IEJvYjogQXV0aGVudGljYXRpb24gUmVxdWVzdA0KQm9iIC0gLT4gQWxpY2U6IEF1dGhlbnRpY2F0aW9uIFJlc3BvbnNlDQoNCkFsaWNlIC0+IEJvYjogQW5vdGhlciBhdXRoZW50aWNhdGlvbiBSZXF1ZXN0DQpBbGljZSA8LSAtIEJvYjogQW5vdGhlciBhdXRoZW50aWNhdGlvbiBSZXNwb25zZQ0KDQpBbGljZSAtIC0+IEJvYjogaGhoaGgNCkJvYiAtPiBhYWFhOiBkZmxzZmoNCmFhYWEgLSAtPiBjY2NjOmxzZGpmc2ZqDQpAZW5kdW1sDQoKUGxhbnRVTUwgdmVyc2lvbiAxLjIwMjEuMTAoTW9uIEF1ZyAzMCAxMzo0Mzo0OCBVVEMgMjAyMSkKSmF2YSBSdW50aW1lOiBPcGVuSkRLIFJ1bnRpbWUgRW52aXJvbm1lbnQKSlZNOiBPcGVuSkRLIDY0LUJpdCBTZXJ2ZXIgVk0KRGVmYXVsdCBFbmNvZGluZzogVVRGLTgKTGFuZ3VhZ2U6IGVuCkNvdW50cnk6IFVTCi0tPjwvZz48L3N2Zz4=;imageBackground=#ffffff;sketch=0;" vertex="1" parent="CVmZfJUhmrhsSQBnZkMG-1">
            <mxGeometry x="270" y="170" width="416" height="295" as="geometry" />
          </mxCell>
        </UserObject>
        <UserObject label="" mermaidData="{&#xa;  &quot;data&quot;: &quot;graph TD;\n  A--&gt;B;\n  A--&gt;C;\n  B--&gt;D;\n  C--&gt;D;&quot;,&#xa;  &quot;config&quot;: {&#xa;    &quot;theme&quot;: &quot;neutral&quot;,&#xa;    &quot;arrowMarkerAbsolute&quot;: false,&#xa;    &quot;flowchart&quot;: {&#xa;      &quot;htmlLabels&quot;: false&#xa;    },&#xa;    &quot;sequence&quot;: {&#xa;      &quot;diagramMarginX&quot;: 50,&#xa;      &quot;diagramMarginY&quot;: 10,&#xa;      &quot;actorMargin&quot;: 50,&#xa;      &quot;width&quot;: 150,&#xa;      &quot;height&quot;: 65,&#xa;      &quot;boxMargin&quot;: 10,&#xa;      &quot;boxTextMargin&quot;: 5,&#xa;      &quot;noteMargin&quot;: 10,&#xa;      &quot;messageMargin&quot;: 35,&#xa;      &quot;mirrorActors&quot;: true,&#xa;      &quot;bottomMarginAdj&quot;: 1,&#xa;      &quot;useMaxWidth&quot;: true,&#xa;      &quot;rightAngles&quot;: false,&#xa;      &quot;showSequenceNumbers&quot;: false&#xa;    },&#xa;    &quot;gantt&quot;: {&#xa;      &quot;titleTopMargin&quot;: 25,&#xa;      &quot;barHeight&quot;: 20,&#xa;      &quot;barGap&quot;: 4,&#xa;      &quot;topPadding&quot;: 50,&#xa;      &quot;leftPadding&quot;: 75,&#xa;      &quot;gridLineStartPadding&quot;: 35,&#xa;      &quot;fontSize&quot;: 11,&#xa;      &quot;fontFamily&quot;: &quot;\&quot;Open-Sans\&quot;, \&quot;sans-serif\&quot;&quot;,&#xa;      &quot;numberSectionStyles&quot;: 4,&#xa;      &quot;axisFormat&quot;: &quot;%Y-%m-%d&quot;&#xa;    },&#xa;    &quot;securityLevel&quot;: &quot;strict&quot;,&#xa;    &quot;startOnLoad&quot;: false,&#xa;    &quot;themeVariables&quot;: {&#xa;      &quot;primaryColor&quot;: &quot;#eee&quot;,&#xa;      &quot;contrast&quot;: &quot;#707070&quot;,&#xa;      &quot;secondaryColor&quot;: &quot;hsl(0, 0%, 98.9215686275%)&quot;,&#xa;      &quot;background&quot;: &quot;#ffffff&quot;,&#xa;      &quot;tertiaryColor&quot;: &quot;hsl(-160, 0%, 93.3333333333%)&quot;,&#xa;      &quot;primaryBorderColor&quot;: &quot;hsl(0, 0%, 83.3333333333%)&quot;,&#xa;      &quot;secondaryBorderColor&quot;: &quot;hsl(0, 0%, 88.9215686275%)&quot;,&#xa;      &quot;tertiaryBorderColor&quot;: &quot;hsl(-160, 0%, 83.3333333333%)&quot;,&#xa;      &quot;primaryTextColor&quot;: &quot;#111111&quot;,&#xa;      &quot;secondaryTextColor&quot;: &quot;rgb(2.7499999999, 2.7499999999, 2.7499999999)&quot;,&#xa;      &quot;tertiaryTextColor&quot;: &quot;rgb(17.0000000001, 17.0000000001, 17.0000000001)&quot;,&#xa;      &quot;lineColor&quot;: &quot;#666&quot;,&#xa;      &quot;textColor&quot;: &quot;#000000&quot;,&#xa;      &quot;mainBkg&quot;: &quot;#eee&quot;,&#xa;      &quot;secondBkg&quot;: &quot;hsl(0, 0%, 98.9215686275%)&quot;,&#xa;      &quot;border1&quot;: &quot;#999&quot;,&#xa;      &quot;border2&quot;: &quot;#707070&quot;,&#xa;      &quot;note&quot;: &quot;#ffa&quot;,&#xa;      &quot;text&quot;: &quot;#333&quot;,&#xa;      &quot;critical&quot;: &quot;#d42&quot;,&#xa;      &quot;done&quot;: &quot;#bbb&quot;,&#xa;      &quot;arrowheadColor&quot;: &quot;#333333&quot;,&#xa;      &quot;fontFamily&quot;: &quot;\&quot;trebuchet ms\&quot;, verdana, arial, sans-serif&quot;,&#xa;      &quot;fontSize&quot;: &quot;16px&quot;,&#xa;      &quot;nodeBkg&quot;: &quot;#eee&quot;,&#xa;      &quot;nodeBorder&quot;: &quot;#999&quot;,&#xa;      &quot;clusterBkg&quot;: &quot;hsl(0, 0%, 98.9215686275%)&quot;,&#xa;      &quot;clusterBorder&quot;: &quot;#707070&quot;,&#xa;      &quot;defaultLinkColor&quot;: &quot;#666&quot;,&#xa;      &quot;titleColor&quot;: &quot;#333&quot;,&#xa;      &quot;edgeLabelBackground&quot;: &quot;white&quot;,&#xa;      &quot;actorBorder&quot;: &quot;hsl(0, 0%, 83%)&quot;,&#xa;      &quot;actorBkg&quot;: &quot;#eee&quot;,&#xa;      &quot;actorTextColor&quot;: &quot;#333&quot;,&#xa;      &quot;actorLineColor&quot;: &quot;#666&quot;,&#xa;      &quot;signalColor&quot;: &quot;#333&quot;,&#xa;      &quot;signalTextColor&quot;: &quot;#333&quot;,&#xa;      &quot;labelBoxBkgColor&quot;: &quot;#eee&quot;,&#xa;      &quot;labelBoxBorderColor&quot;: &quot;hsl(0, 0%, 83%)&quot;,&#xa;      &quot;labelTextColor&quot;: &quot;#333&quot;,&#xa;      &quot;loopTextColor&quot;: &quot;#333&quot;,&#xa;      &quot;noteBorderColor&quot;: &quot;#999&quot;,&#xa;      &quot;noteBkgColor&quot;: &quot;#666&quot;,&#xa;      &quot;noteTextColor&quot;: &quot;#fff&quot;,&#xa;      &quot;activationBorderColor&quot;: &quot;#666&quot;,&#xa;      &quot;activationBkgColor&quot;: &quot;#f4f4f4&quot;,&#xa;      &quot;sequenceNumberColor&quot;: &quot;white&quot;,&#xa;      &quot;sectionBkgColor&quot;: &quot;hsl(0, 0%, 73.9215686275%)&quot;,&#xa;      &quot;altSectionBkgColor&quot;: &quot;white&quot;,&#xa;      &quot;sectionBkgColor2&quot;: &quot;hsl(0, 0%, 73.9215686275%)&quot;,&#xa;      &quot;taskBorderColor&quot;: &quot;hsl(0, 0%, 33.9215686275%)&quot;,&#xa;      &quot;taskBkgColor&quot;: &quot;#707070&quot;,&#xa;      &quot;taskTextLightColor&quot;: &quot;white&quot;,&#xa;      &quot;taskTextColor&quot;: &quot;white&quot;,&#xa;      &quot;taskTextDarkColor&quot;: &quot;#333&quot;,&#xa;      &quot;taskTextOutsideColor&quot;: &quot;#333&quot;,&#xa;      &quot;taskTextClickableColor&quot;: &quot;#003163&quot;,&#xa;      &quot;activeTaskBorderColor&quot;: &quot;hsl(0, 0%, 33.9215686275%)&quot;,&#xa;      &quot;activeTaskBkgColor&quot;: &quot;#eee&quot;,&#xa;      &quot;gridColor&quot;: &quot;hsl(0, 0%, 90%)&quot;,&#xa;      &quot;doneTaskBkgColor&quot;: &quot;#bbb&quot;,&#xa;      &quot;doneTaskBorderColor&quot;: &quot;#666&quot;,&#xa;      &quot;critBkgColor&quot;: &quot;#d42&quot;,&#xa;      &quot;critBorderColor&quot;: &quot;hsl(10.9090909091, 73.3333333333%, 40%)&quot;,&#xa;      &quot;todayLineColor&quot;: &quot;#d42&quot;,&#xa;      &quot;labelColor&quot;: &quot;black&quot;,&#xa;      &quot;errorBkgColor&quot;: &quot;#552222&quot;,&#xa;      &quot;errorTextColor&quot;: &quot;#552222&quot;,&#xa;      &quot;transitionColor&quot;: &quot;#000&quot;,&#xa;      &quot;transitionLabelColor&quot;: &quot;#000000&quot;,&#xa;      &quot;stateLabelColor&quot;: &quot;#111111&quot;,&#xa;      &quot;stateBkg&quot;: &quot;#eee&quot;,&#xa;      &quot;labelBackgroundColor&quot;: &quot;#eee&quot;,&#xa;      &quot;compositeBackground&quot;: &quot;#ffffff&quot;,&#xa;      &quot;altBackground&quot;: &quot;#f4f4f4&quot;,&#xa;      &quot;compositeTitleBackground&quot;: &quot;#eee&quot;,&#xa;      &quot;stateBorder&quot;: &quot;#000&quot;,&#xa;      &quot;classText&quot;: &quot;#111111&quot;,&#xa;      &quot;fillType0&quot;: &quot;#eee&quot;,&#xa;      &quot;fillType1&quot;: &quot;hsl(0, 0%, 98.9215686275%)&quot;,&#xa;      &quot;fillType2&quot;: &quot;hsl(64, 0%, 93.3333333333%)&quot;,&#xa;      &quot;fillType3&quot;: &quot;hsl(64, 0%, 98.9215686275%)&quot;,&#xa;      &quot;fillType4&quot;: &quot;hsl(-64, 0%, 93.3333333333%)&quot;,&#xa;      &quot;fillType5&quot;: &quot;hsl(-64, 0%, 98.9215686275%)&quot;,&#xa;      &quot;fillType6&quot;: &quot;hsl(128, 0%, 93.3333333333%)&quot;,&#xa;      &quot;fillType7&quot;: &quot;hsl(128, 0%, 98.9215686275%)&quot;,&#xa;      &quot;pie1&quot;: &quot;#F4F4F4&quot;,&#xa;      &quot;pie2&quot;: &quot;#555&quot;,&#xa;      &quot;pie3&quot;: &quot;#BBB&quot;,&#xa;      &quot;pie4&quot;: &quot;#777&quot;,&#xa;      &quot;pie5&quot;: &quot;#999&quot;,&#xa;      &quot;pie6&quot;: &quot;#DDD&quot;,&#xa;      &quot;pie7&quot;: &quot;#FFF&quot;,&#xa;      &quot;pie8&quot;: &quot;#DDD&quot;,&#xa;      &quot;pie9&quot;: &quot;#BBB&quot;,&#xa;      &quot;pie10&quot;: &quot;#999&quot;,&#xa;      &quot;pie11&quot;: &quot;#777&quot;,&#xa;      &quot;pie12&quot;: &quot;#555&quot;,&#xa;      &quot;pieTitleTextSize&quot;: &quot;25px&quot;,&#xa;      &quot;pieTitleTextColor&quot;: &quot;#333&quot;,&#xa;      &quot;pieSectionTextSize&quot;: &quot;17px&quot;,&#xa;      &quot;pieSectionTextColor&quot;: &quot;#000000&quot;,&#xa;      &quot;pieLegendTextSize&quot;: &quot;17px&quot;,&#xa;      &quot;pieLegendTextColor&quot;: &quot;#333&quot;,&#xa;      &quot;pieStrokeColor&quot;: &quot;black&quot;,&#xa;      &quot;pieStrokeWidth&quot;: &quot;2px&quot;,&#xa;      &quot;pieOpacity&quot;: &quot;0.7&quot;,&#xa;      &quot;requirementBackground&quot;: &quot;#eee&quot;,&#xa;      &quot;requirementBorderColor&quot;: &quot;hsl(0, 0%, 83.3333333333%)&quot;,&#xa;      &quot;requirementBorderSize&quot;: &quot;hsl(0, 0%, 83.3333333333%)&quot;,&#xa;      &quot;requirementTextColor&quot;: &quot;#111111&quot;,&#xa;      &quot;relationColor&quot;: &quot;#666&quot;,&#xa;      &quot;relationLabelBackground&quot;: &quot;white&quot;,&#xa;      &quot;relationLabelColor&quot;: &quot;#333&quot;&#xa;    }&#xa;  }&#xa;}" id="CVmZfJUhmrhsSQBnZkMG-3">
          <mxCell style="shape=image;noLabel=1;verticalAlign=top;imageAspect=1;image=data:image/svg+xml,PHN2ZyBpZD0iZ2VNZXJtYWlkT3V0cHV0LTE2MzE2NzA0ODA0OTYiIHdpZHRoPSIxMDAlIiB4bWxucz0iaHR0cDovL3d3dy53My5vcmcvMjAwMC9zdmciIHhtbG5zOnhsaW5rPSJodHRwOi8vd3d3LnczLm9yZy8xOTk5L3hsaW5rIiBoZWlnaHQ9IjIzMS4xOTk5OTY5NDgyNDIyIiBzdHlsZT0ibWF4LXdpZHRoOiAxMjQuNjE2NjYxMDcxNzc3MzRweDsiIHZpZXdCb3g9IjAgMCAxMjQuNjE2NjYxMDcxNzc3MzQgMjMxLjE5OTk5Njk0ODI0MjIiPjxzdHlsZT4jZ2VNZXJtYWlkT3V0cHV0LTE2MzE2NzA0ODA0OTZ7Zm9udC1mYW1pbHk6InRyZWJ1Y2hldCBtcyIsdmVyZGFuYSxhcmlhbCxzYW5zLXNlcmlmO2ZvbnQtc2l6ZToxNnB4O2ZpbGw6IzAwMDAwMDt9I2dlTWVybWFpZE91dHB1dC0xNjMxNjcwNDgwNDk2IC5lcnJvci1pY29ue2ZpbGw6IzU1MjIyMjt9I2dlTWVybWFpZE91dHB1dC0xNjMxNjcwNDgwNDk2IC5lcnJvci10ZXh0e2ZpbGw6IzU1MjIyMjtzdHJva2U6IzU1MjIyMjt9I2dlTWVybWFpZE91dHB1dC0xNjMxNjcwNDgwNDk2IC5lZGdlLXRoaWNrbmVzcy1ub3JtYWx7c3Ryb2tlLXdpZHRoOjJweDt9I2dlTWVybWFpZE91dHB1dC0xNjMxNjcwNDgwNDk2IC5lZGdlLXRoaWNrbmVzcy10aGlja3tzdHJva2Utd2lkdGg6My41cHg7fSNnZU1lcm1haWRPdXRwdXQtMTYzMTY3MDQ4MDQ5NiAuZWRnZS1wYXR0ZXJuLXNvbGlke3N0cm9rZS1kYXNoYXJyYXk6MDt9I2dlTWVybWFpZE91dHB1dC0xNjMxNjcwNDgwNDk2IC5lZGdlLXBhdHRlcm4tZGFzaGVke3N0cm9rZS1kYXNoYXJyYXk6Mzt9I2dlTWVybWFpZE91dHB1dC0xNjMxNjcwNDgwNDk2IC5lZGdlLXBhdHRlcm4tZG90dGVke3N0cm9rZS1kYXNoYXJyYXk6Mjt9I2dlTWVybWFpZE91dHB1dC0xNjMxNjcwNDgwNDk2IC5tYXJrZXJ7ZmlsbDojNjY2O3N0cm9rZTojNjY2O30jZ2VNZXJtYWlkT3V0cHV0LTE2MzE2NzA0ODA0OTYgLm1hcmtlci5jcm9zc3tzdHJva2U6IzY2Njt9I2dlTWVybWFpZE91dHB1dC0xNjMxNjcwNDgwNDk2IHN2Z3tmb250LWZhbWlseToidHJlYnVjaGV0IG1zIix2ZXJkYW5hLGFyaWFsLHNhbnMtc2VyaWY7Zm9udC1zaXplOjE2cHg7fSNnZU1lcm1haWRPdXRwdXQtMTYzMTY3MDQ4MDQ5NiAubGFiZWx7Zm9udC1mYW1pbHk6InRyZWJ1Y2hldCBtcyIsdmVyZGFuYSxhcmlhbCxzYW5zLXNlcmlmO2NvbG9yOiMwMDAwMDA7fSNnZU1lcm1haWRPdXRwdXQtMTYzMTY3MDQ4MDQ5NiAuY2x1c3Rlci1sYWJlbCB0ZXh0e2ZpbGw6IzMzMzt9I2dlTWVybWFpZE91dHB1dC0xNjMxNjcwNDgwNDk2IC5jbHVzdGVyLWxhYmVsIHNwYW57Y29sb3I6IzMzMzt9I2dlTWVybWFpZE91dHB1dC0xNjMxNjcwNDgwNDk2IC5sYWJlbCB0ZXh0LCNnZU1lcm1haWRPdXRwdXQtMTYzMTY3MDQ4MDQ5NiBzcGFue2ZpbGw6IzAwMDAwMDtjb2xvcjojMDAwMDAwO30jZ2VNZXJtYWlkT3V0cHV0LTE2MzE2NzA0ODA0OTYgLm5vZGUgcmVjdCwjZ2VNZXJtYWlkT3V0cHV0LTE2MzE2NzA0ODA0OTYgLm5vZGUgY2lyY2xlLCNnZU1lcm1haWRPdXRwdXQtMTYzMTY3MDQ4MDQ5NiAubm9kZSBlbGxpcHNlLCNnZU1lcm1haWRPdXRwdXQtMTYzMTY3MDQ4MDQ5NiAubm9kZSBwb2x5Z29uLCNnZU1lcm1haWRPdXRwdXQtMTYzMTY3MDQ4MDQ5NiAubm9kZSBwYXRoe2ZpbGw6I2VlZTtzdHJva2U6Izk5OTtzdHJva2Utd2lkdGg6MXB4O30jZ2VNZXJtYWlkT3V0cHV0LTE2MzE2NzA0ODA0OTYgLm5vZGUgLmxhYmVse3RleHQtYWxpZ246Y2VudGVyO30jZ2VNZXJtYWlkT3V0cHV0LTE2MzE2NzA0ODA0OTYgLm5vZGUuY2xpY2thYmxle2N1cnNvcjpwb2ludGVyO30jZ2VNZXJtYWlkT3V0cHV0LTE2MzE2NzA0ODA0OTYgLmFycm93aGVhZFBhdGh7ZmlsbDojMzMzMzMzO30jZ2VNZXJtYWlkT3V0cHV0LTE2MzE2NzA0ODA0OTYgLmVkZ2VQYXRoIC5wYXRoe3N0cm9rZTojNjY2O3N0cm9rZS13aWR0aDoxLjVweDt9I2dlTWVybWFpZE91dHB1dC0xNjMxNjcwNDgwNDk2IC5mbG93Y2hhcnQtbGlua3tzdHJva2U6IzY2NjtmaWxsOm5vbmU7fSNnZU1lcm1haWRPdXRwdXQtMTYzMTY3MDQ4MDQ5NiAuZWRnZUxhYmVse2JhY2tncm91bmQtY29sb3I6d2hpdGU7dGV4dC1hbGlnbjpjZW50ZXI7fSNnZU1lcm1haWRPdXRwdXQtMTYzMTY3MDQ4MDQ5NiAuZWRnZUxhYmVsIHJlY3R7b3BhY2l0eTowLjU7YmFja2dyb3VuZC1jb2xvcjp3aGl0ZTtmaWxsOndoaXRlO30jZ2VNZXJtYWlkT3V0cHV0LTE2MzE2NzA0ODA0OTYgLmNsdXN0ZXIgcmVjdHtmaWxsOmhzbCgwLDAlLDk4LjkyMTU2ODYyNzUlKTtzdHJva2U6IzcwNzA3MDtzdHJva2Utd2lkdGg6MXB4O30jZ2VNZXJtYWlkT3V0cHV0LTE2MzE2NzA0ODA0OTYgLmNsdXN0ZXIgdGV4dHtmaWxsOiMzMzM7fSNnZU1lcm1haWRPdXRwdXQtMTYzMTY3MDQ4MDQ5NiAuY2x1c3RlciBzcGFue2NvbG9yOiMzMzM7fSNnZU1lcm1haWRPdXRwdXQtMTYzMTY3MDQ4MDQ5NiBkaXYubWVybWFpZFRvb2x0aXB7cG9zaXRpb246YWJzb2x1dGU7dGV4dC1hbGlnbjpjZW50ZXI7bWF4LXdpZHRoOjIwMHB4O3BhZGRpbmc6MnB4O2ZvbnQtZmFtaWx5OiJ0cmVidWNoZXQgbXMiLHZlcmRhbmEsYXJpYWwsc2Fucy1zZXJpZjtmb250LXNpemU6MTJweDtiYWNrZ3JvdW5kOmhzbCgtMTYwLDAlLDkzLjMzMzMzMzMzMzMlKTtib3JkZXI6MXB4IHNvbGlkICM3MDcwNzA7Ym9yZGVyLXJhZGl1czoycHg7cG9pbnRlci1ldmVudHM6bm9uZTt6LWluZGV4OjEwMDt9I2dlTWVybWFpZE91dHB1dC0xNjMxNjcwNDgwNDk2OnJvb3R7LS1tZXJtYWlkLWZvbnQtZmFtaWx5OiJ0cmVidWNoZXQgbXMiLHZlcmRhbmEsYXJpYWwsc2Fucy1zZXJpZjt9PC9zdHlsZT48Zz48ZyBjbGFzcz0ib3V0cHV0Ij48ZyBjbGFzcz0iY2x1c3RlcnMiPjwvZz48ZyBjbGFzcz0iZWRnZVBhdGhzIj48ZyBjbGFzcz0iZWRnZVBhdGggTFMtQSBMRS1CIiBzdHlsZT0ib3BhY2l0eTogMTsiIGlkPSJMLUEtQiI+PHBhdGggY2xhc3M9InBhdGgiIGQ9Ik00Ny40NjI0OTg2NjQ4NTU5Niw0My42MDM3NDI0NzE3MDQ2ODVMNDMuMzA2MjQ4ODIzODAxNjc0LDQ4LjIzNjQ1MjMxNDA2NzA2QzM5LjE0OTk5ODk4Mjc0NzQsNTIuODY5MTYyMTU2NDI5NDMsMzAuODM3NDk5MzAwNjM4ODM2LDYyLjEzNDU4MTg0MTE1NDE2NiwyNi42ODEyNDk0NTk1ODQ1NTMsNzAuOTMzOTU4MzUwMTgzMkMyMi41MjQ5OTk2MTg1MzAyNzMsNzkuNzMzMzM0ODU5MjEyMjMsMjIuNTI0OTk5NjE4NTMwMjczLDg4LjA2NjY2ODE5MjU0NTU4LDIyLjUyNDk5OTYxODUzMDI3Myw5Mi4yMzMzMzQ4NTkyMTIyM0wyMi41MjQ5OTk2MTg1MzAyNzMsOTYuNDAwMDAxNTI1ODc4OSIgbWFya2VyLWVuZD0idXJsKCNhcnJvd2hlYWQxNCkiIHN0eWxlPSJmaWxsOm5vbmUiPjwvcGF0aD48ZGVmcz48bWFya2VyIGlkPSJhcnJvd2hlYWQxNCIgdmlld0JveD0iMCAwIDEwIDEwIiByZWZYPSI5IiByZWZZPSI1IiBtYXJrZXJVbml0cz0ic3Ryb2tlV2lkdGgiIG1hcmtlcldpZHRoPSI4IiBtYXJrZXJIZWlnaHQ9IjYiIG9yaWVudD0iYXV0byI+PHBhdGggZD0iTSAwIDAgTCAxMCA1IEwgMCAxMCB6IiBjbGFzcz0iYXJyb3doZWFkUGF0aCIgc3R5bGU9InN0cm9rZS13aWR0aDogMXB4OyBzdHJva2UtZGFzaGFycmF5OiAxcHgsIDBweDsiPjwvcGF0aD48L21hcmtlcj48L2RlZnM+PC9nPjxnIGNsYXNzPSJlZGdlUGF0aCBMUy1BIExFLUMiIHN0eWxlPSJvcGFjaXR5OiAxOyIgaWQ9IkwtQS1DIj48cGF0aCBjbGFzcz0icGF0aCIgZD0iTTc2Ljg5NTgzMzAxNTQ0MTksNDMuNjAzNzQyNDcxNzA0Njg1TDgxLjA1MjA4Mjg1NjQ5NjE3LDQ4LjIzNjQ1MjMxNDA2NzA2Qzg1LjIwODMzMjY5NzU1MDQ2LDUyLjg2OTE2MjE1NjQyOTQzLDkzLjUyMDgzMjM3OTY1OTAxLDYyLjEzNDU4MTg0MTE1NDE2Niw5Ny42NzcwODIyMjA3MTMzLDcwLjkzMzk1ODM1MDE4MzJDMTAxLjgzMzMzMjA2MTc2NzU4LDc5LjczMzMzNDg1OTIxMjIzLDEwMS44MzMzMzIwNjE3Njc1OCw4OC4wNjY2NjgxOTI1NDU1OCwxMDEuODMzMzMyMDYxNzY3NTgsOTIuMjMzMzM0ODU5MjEyMjNMMTAxLjgzMzMzMjA2MTc2NzU4LDk2LjQwMDAwMTUyNTg3ODkiIG1hcmtlci1lbmQ9InVybCgjYXJyb3doZWFkMTUpIiBzdHlsZT0iZmlsbDpub25lIj48L3BhdGg+PGRlZnM+PG1hcmtlciBpZD0iYXJyb3doZWFkMTUiIHZpZXdCb3g9IjAgMCAxMCAxMCIgcmVmWD0iOSIgcmVmWT0iNSIgbWFya2VyVW5pdHM9InN0cm9rZVdpZHRoIiBtYXJrZXJXaWR0aD0iOCIgbWFya2VySGVpZ2h0PSI2IiBvcmllbnQ9ImF1dG8iPjxwYXRoIGQ9Ik0gMCAwIEwgMTAgNSBMIDAgMTAgeiIgY2xhc3M9ImFycm93aGVhZFBhdGgiIHN0eWxlPSJzdHJva2Utd2lkdGg6IDFweDsgc3Ryb2tlLWRhc2hhcnJheTogMXB4LCAwcHg7Ij48L3BhdGg+PC9tYXJrZXI+PC9kZWZzPjwvZz48ZyBjbGFzcz0iZWRnZVBhdGggTFMtQiBMRS1EIiBzdHlsZT0ib3BhY2l0eTogMTsiIGlkPSJMLUItRCI+PHBhdGggY2xhc3M9InBhdGgiIGQ9Ik0yMi41MjQ5OTk2MTg1MzAyNzMsMTM0LjgwMDAwMzA1MTc1NzhMMjIuNTI0OTk5NjE4NTMwMjczLDEzOC45NjY2Njk3MTg0MjQ0N0MyMi41MjQ5OTk2MTg1MzAyNzMsMTQzLjEzMzMzNjM4NTA5MTE2LDIyLjUyNDk5OTYxODUzMDI3MywxNTEuNDY2NjY5NzE4NDI0NDcsMjYuNjQ5MzA1MTg0NjgyMjEsMTYwLjIzMDQzOTk1Njc5OTI3QzMwLjc3MzYxMDc1MDgzNDE1LDE2OC45OTQyMTAxOTUxNzQwOCwzOS4wMjIyMjE4ODMxMzgwMiwxNzguMTg4NDE3MzM4NTkwMyw0My4xNDY1Mjc0NDkyODk5NTUsMTgyLjc4NTUyMDkxMDI5ODVMNDcuMjcwODMzMDE1NDQxODk1LDE4Ny4zODI2MjQ0ODIwMDY2IiBtYXJrZXItZW5kPSJ1cmwoI2Fycm93aGVhZDE2KSIgc3R5bGU9ImZpbGw6bm9uZSI+PC9wYXRoPjxkZWZzPjxtYXJrZXIgaWQ9ImFycm93aGVhZDE2IiB2aWV3Qm94PSIwIDAgMTAgMTAiIHJlZlg9IjkiIHJlZlk9IjUiIG1hcmtlclVuaXRzPSJzdHJva2VXaWR0aCIgbWFya2VyV2lkdGg9IjgiIG1hcmtlckhlaWdodD0iNiIgb3JpZW50PSJhdXRvIj48cGF0aCBkPSJNIDAgMCBMIDEwIDUgTCAwIDEwIHoiIGNsYXNzPSJhcnJvd2hlYWRQYXRoIiBzdHlsZT0ic3Ryb2tlLXdpZHRoOiAxcHg7IHN0cm9rZS1kYXNoYXJyYXk6IDFweCwgMHB4OyI+PC9wYXRoPjwvbWFya2VyPjwvZGVmcz48L2c+PGcgY2xhc3M9ImVkZ2VQYXRoIExTLUMgTEUtRCIgc3R5bGU9Im9wYWNpdHk6IDE7IiBpZD0iTC1DLUQiPjxwYXRoIGNsYXNzPSJwYXRoIiBkPSJNMTAxLjgzMzMzMjA2MTc2NzU4LDEzNC44MDAwMDMwNTE3NTc4TDEwMS44MzMzMzIwNjE3Njc1OCwxMzguOTY2NjY5NzE4NDI0NDdDMTAxLjgzMzMzMjA2MTc2NzU4LDE0My4xMzMzMzYzODUwOTExNiwxMDEuODMzMzMyMDYxNzY3NTgsMTUxLjQ2NjY2OTcxODQyNDQ3LDk3LjcwOTAyNjQ5NTYxNTY1LDE2MC4yMzA0Mzk5NTY3OTkyN0M5My41ODQ3MjA5Mjk0NjM3LDE2OC45OTQyMTAxOTUxNzQwOCw4NS4zMzYxMDk3OTcxNTk4NCwxNzguMTg4NDE3MzM4NTkwMyw4MS4yMTE4MDQyMzEwMDc4OSwxODIuNzg1NTIwOTEwMjk4NUw3Ny4wODc0OTg2NjQ4NTU5NiwxODcuMzgyNjI0NDgyMDA2NiIgbWFya2VyLWVuZD0idXJsKCNhcnJvd2hlYWQxNykiIHN0eWxlPSJmaWxsOm5vbmUiPjwvcGF0aD48ZGVmcz48bWFya2VyIGlkPSJhcnJvd2hlYWQxNyIgdmlld0JveD0iMCAwIDEwIDEwIiByZWZYPSI5IiByZWZZPSI1IiBtYXJrZXJVbml0cz0ic3Ryb2tlV2lkdGgiIG1hcmtlcldpZHRoPSI4IiBtYXJrZXJIZWlnaHQ9IjYiIG9yaWVudD0iYXV0byI+PHBhdGggZD0iTSAwIDAgTCAxMCA1IEwgMCAxMCB6IiBjbGFzcz0iYXJyb3doZWFkUGF0aCIgc3R5bGU9InN0cm9rZS13aWR0aDogMXB4OyBzdHJva2UtZGFzaGFycmF5OiAxcHgsIDBweDsiPjwvcGF0aD48L21hcmtlcj48L2RlZnM+PC9nPjwvZz48ZyBjbGFzcz0iZWRnZUxhYmVscyI+PGcgY2xhc3M9ImVkZ2VMYWJlbCIgc3R5bGU9Im9wYWNpdHk6IDE7IiB0cmFuc2Zvcm09IiI+PGcgdHJhbnNmb3JtPSJ0cmFuc2xhdGUoMCwwKSIgY2xhc3M9ImxhYmVsIj48cmVjdCByeD0iMCIgcnk9IjAiIHdpZHRoPSIwIiBoZWlnaHQ9IjAiPjwvcmVjdD48dGV4dD48dHNwYW4geG1sOnNwYWNlPSJwcmVzZXJ2ZSIgZHk9IjFlbSIgeD0iMSI+PC90c3Bhbj48L3RleHQ+PC9nPjwvZz48ZyBjbGFzcz0iZWRnZUxhYmVsIiBzdHlsZT0ib3BhY2l0eTogMTsiIHRyYW5zZm9ybT0iIj48ZyB0cmFuc2Zvcm09InRyYW5zbGF0ZSgwLDApIiBjbGFzcz0ibGFiZWwiPjxyZWN0IHJ4PSIwIiByeT0iMCIgd2lkdGg9IjAiIGhlaWdodD0iMCI+PC9yZWN0Pjx0ZXh0Pjx0c3BhbiB4bWw6c3BhY2U9InByZXNlcnZlIiBkeT0iMWVtIiB4PSIxIj48L3RzcGFuPjwvdGV4dD48L2c+PC9nPjxnIGNsYXNzPSJlZGdlTGFiZWwiIHN0eWxlPSJvcGFjaXR5OiAxOyIgdHJhbnNmb3JtPSIiPjxnIHRyYW5zZm9ybT0idHJhbnNsYXRlKDAsMCkiIGNsYXNzPSJsYWJlbCI+PHJlY3Qgcng9IjAiIHJ5PSIwIiB3aWR0aD0iMCIgaGVpZ2h0PSIwIj48L3JlY3Q+PHRleHQ+PHRzcGFuIHhtbDpzcGFjZT0icHJlc2VydmUiIGR5PSIxZW0iIHg9IjEiPjwvdHNwYW4+PC90ZXh0PjwvZz48L2c+PGcgY2xhc3M9ImVkZ2VMYWJlbCIgc3R5bGU9Im9wYWNpdHk6IDE7IiB0cmFuc2Zvcm09IiI+PGcgdHJhbnNmb3JtPSJ0cmFuc2xhdGUoMCwwKSIgY2xhc3M9ImxhYmVsIj48cmVjdCByeD0iMCIgcnk9IjAiIHdpZHRoPSIwIiBoZWlnaHQ9IjAiPjwvcmVjdD48dGV4dD48dHNwYW4geG1sOnNwYWNlPSJwcmVzZXJ2ZSIgZHk9IjFlbSIgeD0iMSI+PC90c3Bhbj48L3RleHQ+PC9nPjwvZz48L2c+PGcgY2xhc3M9Im5vZGVzIj48ZyBjbGFzcz0ibm9kZSBkZWZhdWx0IiBzdHlsZT0ib3BhY2l0eTogMTsiIGlkPSJmbG93Y2hhcnQtQS04IiB0cmFuc2Zvcm09InRyYW5zbGF0ZSg2Mi4xNzkxNjU4NDAxNDg5MjYsMjcuMjAwMDAwNzYyOTM5NDUzKSI+PHJlY3Qgcng9IjAiIHJ5PSIwIiB4PSItMTQuNzE2NjY2Njk4NDU1ODEiIHk9Ii0xOS4xOTk5OTk4MDkyNjUxMzciIHdpZHRoPSIyOS40MzMzMzMzOTY5MTE2MiIgaGVpZ2h0PSIzOC4zOTk5OTk2MTg1MzAyNyIgY2xhc3M9ImxhYmVsLWNvbnRhaW5lciI+PC9yZWN0PjxnIGNsYXNzPSJsYWJlbCIgdHJhbnNmb3JtPSJ0cmFuc2xhdGUoMCwwKSI+PGcgdHJhbnNmb3JtPSJ0cmFuc2xhdGUoLTQuNzE2NjY2Njk4NDU1ODEwNSwtOS4xOTk5OTk4MDkyNjUxMzcpIj48dGV4dCBzdHlsZT0iIj48dHNwYW4geG1sOnNwYWNlPSJwcmVzZXJ2ZSIgZHk9IjFlbSIgeD0iMSI+QTwvdHNwYW4+PC90ZXh0PjwvZz48L2c+PC9nPjxnIGNsYXNzPSJub2RlIGRlZmF1bHQiIHN0eWxlPSJvcGFjaXR5OiAxOyIgaWQ9ImZsb3djaGFydC1CLTkiIHRyYW5zZm9ybT0idHJhbnNsYXRlKDIyLjUyNDk5OTYxODUzMDI3MywxMTUuNjAwMDAyMjg4ODE4MzYpIj48cmVjdCByeD0iMCIgcnk9IjAiIHg9Ii0xNC41MjUwMDAwOTUzNjc0MzIiIHk9Ii0xOS4xOTk5OTk4MDkyNjUxMzciIHdpZHRoPSIyOS4wNTAwMDAxOTA3MzQ4NjMiIGhlaWdodD0iMzguMzk5OTk5NjE4NTMwMjciIGNsYXNzPSJsYWJlbC1jb250YWluZXIiPjwvcmVjdD48ZyBjbGFzcz0ibGFiZWwiIHRyYW5zZm9ybT0idHJhbnNsYXRlKDAsMCkiPjxnIHRyYW5zZm9ybT0idHJhbnNsYXRlKC00LjUyNTAwMDA5NTM2NzQzMiwtOS4xOTk5OTk4MDkyNjUxMzcpIj48dGV4dCBzdHlsZT0iIj48dHNwYW4geG1sOnNwYWNlPSJwcmVzZXJ2ZSIgZHk9IjFlbSIgeD0iMSI+QjwvdHNwYW4+PC90ZXh0PjwvZz48L2c+PC9nPjxnIGNsYXNzPSJub2RlIGRlZmF1bHQiIHN0eWxlPSJvcGFjaXR5OiAxOyIgaWQ9ImZsb3djaGFydC1DLTExIiB0cmFuc2Zvcm09InRyYW5zbGF0ZSgxMDEuODMzMzMyMDYxNzY3NTgsMTE1LjYwMDAwMjI4ODgxODM2KSI+PHJlY3Qgcng9IjAiIHJ5PSIwIiB4PSItMTQuNzgzMzMzMzAxNTQ0MTkiIHk9Ii0xOS4xOTk5OTk4MDkyNjUxMzciIHdpZHRoPSIyOS41NjY2NjY2MDMwODgzOCIgaGVpZ2h0PSIzOC4zOTk5OTk2MTg1MzAyNyIgY2xhc3M9ImxhYmVsLWNvbnRhaW5lciI+PC9yZWN0PjxnIGNsYXNzPSJsYWJlbCIgdHJhbnNmb3JtPSJ0cmFuc2xhdGUoMCwwKSI+PGcgdHJhbnNmb3JtPSJ0cmFuc2xhdGUoLTQuNzgzMzMzMzAxNTQ0MTg5NSwtOS4xOTk5OTk4MDkyNjUxMzcpIj48dGV4dCBzdHlsZT0iIj48dHNwYW4geG1sOnNwYWNlPSJwcmVzZXJ2ZSIgZHk9IjFlbSIgeD0iMSI+QzwvdHNwYW4+PC90ZXh0PjwvZz48L2c+PC9nPjxnIGNsYXNzPSJub2RlIGRlZmF1bHQiIHN0eWxlPSJvcGFjaXR5OiAxOyIgaWQ9ImZsb3djaGFydC1ELTEzIiB0cmFuc2Zvcm09InRyYW5zbGF0ZSg2Mi4xNzkxNjU4NDAxNDg5MjYsMjA0LjAwMDAwMzgxNDY5NzI3KSI+PHJlY3Qgcng9IjAiIHJ5PSIwIiB4PSItMTQuOTA4MzMzMzAxNTQ0MTkiIHk9Ii0xOS4xOTk5OTk4MDkyNjUxMzciIHdpZHRoPSIyOS44MTY2NjY2MDMwODgzOCIgaGVpZ2h0PSIzOC4zOTk5OTk2MTg1MzAyNyIgY2xhc3M9ImxhYmVsLWNvbnRhaW5lciI+PC9yZWN0PjxnIGNsYXNzPSJsYWJlbCIgdHJhbnNmb3JtPSJ0cmFuc2xhdGUoMCwwKSI+PGcgdHJhbnNmb3JtPSJ0cmFuc2xhdGUoLTQuOTA4MzMzMzAxNTQ0MTg5NSwtOS4xOTk5OTk4MDkyNjUxMzcpIj48dGV4dCBzdHlsZT0iIj48dHNwYW4geG1sOnNwYWNlPSJwcmVzZXJ2ZSIgZHk9IjFlbSIgeD0iMSI+RDwvdHNwYW4+PC90ZXh0PjwvZz48L2c+PC9nPjwvZz48L2c+PC9nPjwvc3ZnPg==;" vertex="1" parent="CVmZfJUhmrhsSQBnZkMG-1">
            <mxGeometry x="120" y="480" width="100" height="231.1999969482422" as="geometry" />
          </mxCell>
        </UserObject>
        <UserObject label="%name%&lt;br&gt;&lt;i style=&quot;color: gray&quot;&gt;%position%&lt;/i&gt;&lt;br&gt;&lt;a href=&quot;mailto:%email%&quot;&gt;Email&lt;/a&gt;" name="Tessa Miller" position="CFO" location="Office 1" email="me@example.com" placeholders="1" link="https://www.draw.io" id="CVmZfJUhmrhsSQBnZkMG-4">
          <mxCell style="label;image=https://cdn3.iconfinder.com/data/icons/user-avatars-1/512/users-3-128.png;whiteSpace=wrap;html=1;rounded=1;fillColor=#dae8fc;strokeColor=#6c8ebf;" vertex="1" parent="CVmZfJUhmrhsSQBnZkMG-1">
            <mxGeometry x="389" y="700" width="168" height="78" as="geometry" />
          </mxCell>
        </UserObject>
        <UserObject label="%name%&lt;br&gt;&lt;i style=&quot;color: gray&quot;&gt;%position%&lt;/i&gt;&lt;br&gt;&lt;a href=&quot;mailto:%email%&quot;&gt;Email&lt;/a&gt;" name="Edward Morrison" position="Brand Manager" location="Office 2" email="me@example.com" placeholders="1" link="https://www.draw.io" id="CVmZfJUhmrhsSQBnZkMG-5">
          <mxCell style="label;image=https://cdn3.iconfinder.com/data/icons/user-avatars-1/512/users-10-3-128.png;whiteSpace=wrap;html=1;rounded=1;fillColor=#d5e8d4;strokeColor=#82b366;" vertex="1" parent="CVmZfJUhmrhsSQBnZkMG-1">
            <mxGeometry x="250" y="1056" width="198" height="78" as="geometry" />
          </mxCell>
        </UserObject>
        <UserObject label="%name%&lt;br&gt;&lt;i style=&quot;color: gray&quot;&gt;%position%&lt;/i&gt;&lt;br&gt;&lt;a href=&quot;mailto:%email%&quot;&gt;Email&lt;/a&gt;" name="Alison Donovan" position="System Admin" location="Office 3" email="me@example.com" placeholders="1" link="https://www.draw.io" id="CVmZfJUhmrhsSQBnZkMG-6">
          <mxCell style="label;image=https://cdn3.iconfinder.com/data/icons/user-avatars-1/512/users-2-128.png;whiteSpace=wrap;html=1;rounded=1;fillColor=#d5e8d4;strokeColor=#82b366;" vertex="1" parent="CVmZfJUhmrhsSQBnZkMG-1">
            <mxGeometry x="379" y="878" width="188" height="78" as="geometry" />
          </mxCell>
        </UserObject>
        <UserObject label="%name%&lt;br&gt;&lt;i style=&quot;color: gray&quot;&gt;%position%&lt;/i&gt;&lt;br&gt;&lt;a href=&quot;mailto:%email%&quot;&gt;Email&lt;/a&gt;" name="Evan Valet" position="HR Director" location="Office 4" email="me@example.com" placeholders="1" link="https://www.draw.io" id="CVmZfJUhmrhsSQBnZkMG-7">
          <mxCell style="label;image=https://cdn3.iconfinder.com/data/icons/user-avatars-1/512/users-9-2-128.png;whiteSpace=wrap;html=1;rounded=1;fillColor=#d5e8d4;strokeColor=#82b366;" vertex="1" parent="CVmZfJUhmrhsSQBnZkMG-1">
            <mxGeometry x="508" y="1056" width="168" height="78" as="geometry" />
          </mxCell>
        </UserObject>
        <mxCell id="CVmZfJUhmrhsSQBnZkMG-8" value="manages" style="curved=1;endArrow=blockThin;endFill=1;fontSize=11;" edge="1" parent="CVmZfJUhmrhsSQBnZkMG-1" source="CVmZfJUhmrhsSQBnZkMG-4" target="CVmZfJUhmrhsSQBnZkMG-5">
          <mxGeometry relative="1" as="geometry">
            <Array as="points">
              <mxPoint x="420.33333333333337" y="790" />
              <mxPoint x="339" y="828" />
              <mxPoint x="339" y="1006" />
              <mxPoint x="322" y="1044" />
            </Array>
          </mxGeometry>
        </mxCell>
        <mxCell id="CVmZfJUhmrhsSQBnZkMG-9" value="manages" style="curved=1;endArrow=blockThin;endFill=1;fontSize=11;" edge="1" parent="CVmZfJUhmrhsSQBnZkMG-1" source="CVmZfJUhmrhsSQBnZkMG-4" target="CVmZfJUhmrhsSQBnZkMG-6">
          <mxGeometry relative="1" as="geometry">
            <Array as="points">
              <mxPoint x="473" y="792" />
              <mxPoint x="473" y="866" />
            </Array>
          </mxGeometry>
        </mxCell>
        <mxCell id="CVmZfJUhmrhsSQBnZkMG-10" value="manages" style="curved=1;endArrow=blockThin;endFill=1;fontSize=11;" edge="1" parent="CVmZfJUhmrhsSQBnZkMG-1" source="CVmZfJUhmrhsSQBnZkMG-4" target="CVmZfJUhmrhsSQBnZkMG-7">
          <mxGeometry relative="1" as="geometry">
            <Array as="points">
              <mxPoint x="525.6666666666666" y="790" />
              <mxPoint x="607" y="828" />
              <mxPoint x="607" y="1006" />
              <mxPoint x="631.5" y="1044" />
            </Array>
          </mxGeometry>
        </mxCell>
        <mxCell id="CVmZfJUhmrhsSQBnZkMG-11" value="" style="curved=1;fontSize=11;" edge="1" parent="CVmZfJUhmrhsSQBnZkMG-1" source="CVmZfJUhmrhsSQBnZkMG-6" target="CVmZfJUhmrhsSQBnZkMG-5">
          <mxGeometry relative="1" as="geometry">
            <Array as="points">
              <mxPoint x="428.5" y="968" />
              <mxPoint x="416" y="1044" />
            </Array>
          </mxGeometry>
        </mxCell>
        <mxCell id="CVmZfJUhmrhsSQBnZkMG-12" value="" style="curved=1;fontSize=11;" edge="1" parent="CVmZfJUhmrhsSQBnZkMG-1" source="CVmZfJUhmrhsSQBnZkMG-6" target="CVmZfJUhmrhsSQBnZkMG-7">
          <mxGeometry relative="1" as="geometry">
            <Array as="points">
              <mxPoint x="517.5" y="968" />
              <mxPoint x="552.5" y="1044" />
            </Array>
          </mxGeometry>
        </mxCell>
      </root>
    </mxGraphModel>
  </diagram>
</mxfile>
